<svg width="430" height="361" viewBox="0 0 430 361" fill="none" xmlns="http://www.w3.org/2000/svg">
<path d="M301.222 188.029C319.259 188.37 338.584 188.672 352.965 198.762C367.039 208.637 369.973 226.351 377.144 241.296C384.272 256.15 397.434 270.069 394.899 286.154C392.364 302.246 376.531 313.036 364.039 324.461C352.383 335.122 339.85 344.33 324.783 350.281C308.081 356.877 290.421 363.731 272.587 360.578C254.015 357.295 237.804 346.323 225.812 332.783C213.97 319.413 208.187 302.558 205.99 285.385C203.824 268.457 205.947 251.341 213.396 235.753C220.926 219.995 232.283 205.505 248.33 196.785C264.097 188.217 282.946 187.684 301.222 188.029Z" fill="#F7EECF" fill-opacity="0.85"/>
<path d="M227.985 121.712C239.577 124.613 240.551 140.362 248.865 148.388C256.474 155.735 268.029 158.67 274.669 166.783C282.105 175.867 292.162 186.657 289.254 197.734C286.175 209.467 265.279 210.262 260.326 221.431C254.359 234.888 268.875 252.757 259.637 264.521C251.489 274.896 233.437 271.646 219.686 273.183C206.364 274.672 193.044 276.086 179.936 273.429C166.365 270.678 152.079 266.885 142.526 257.541C133.072 248.294 131.099 234.735 127.747 222.383C124.708 211.185 119.585 199.258 123.755 188.377C127.927 177.492 141.644 172.871 150.008 164.303C156.523 157.629 159.8 148.49 167.745 143.311C175.692 138.131 186.01 138.176 195.072 134.927C206.365 130.878 216.295 118.786 227.985 121.712Z" fill="#D9DDE0" fill-opacity="0.65"/>
<path d="M358.121 137.275C370.491 140.133 380.459 148.738 390.552 156.44C399.687 163.411 410.912 169.64 414.734 180.477C418.622 191.501 410.34 203.323 411.199 214.981C411.898 224.476 417.065 232.792 419.271 242.054C422.417 255.258 435.743 271.136 427.06 281.57C417.867 292.616 397.827 278.538 384.478 283.863C374.108 287.999 371.047 301.94 361.497 307.722C350.203 314.559 336.054 326.407 324.379 320.245C311.387 313.388 314.277 293.154 308.393 279.694C304.777 271.423 299.321 264.313 296.222 255.835C293.307 247.859 293.412 239.296 290.688 231.252C286.906 220.082 272.674 210.025 276.993 199.051C281.274 188.172 302.022 194.739 308.806 185.218C317.887 172.471 307.887 150.845 319.108 139.936C328.558 130.75 345.281 134.309 358.121 137.275Z" fill="#EAEAFF" fill-opacity="0.85"/>
<g clip-path="url(#clip0_465_1176)">
<path d="M112.467 221.051L89.6675 223.443L78.7564 216.266L72.4424 223.443L75.4762 238.586L78.9412 250.542L99.9856 240.228L116.933 238.75L112.467 221.051Z" fill="#FFB6B6"/>
<path d="M227.992 195.691L172.959 194.733L106.022 222.002L114.947 240.667L175.439 224.395L269.141 250.23L256.251 188.997L227.992 195.691Z" fill="#2F2E41"/>
<path d="M77.0393 222.79L87.9811 221.965L74.067 193.603C74.067 193.603 67.6221 191.404 66.6288 198.247C65.6354 205.083 74.0978 251.396 76.5773 251.396C79.0567 251.396 87.3728 246.715 87.3728 246.715L75.0603 224.224L77.047 222.79L77.0393 222.79Z" fill="#2F2E41"/>
<path d="M351.393 215.025C350.292 215.136 349.091 215.307 347.813 215.56C342.392 216.622 342.284 220.174 342.33 220.984L342.292 220.962C341.745 221.801 341.406 222.656 341.198 223.466L340.952 212.588C341.114 212.268 341.26 211.897 341.383 211.525C341.791 212.729 342.453 213.866 343.023 213.791C343.77 213.695 344.094 211.577 343.955 210.076C344.902 211.25 346.496 212.513 347.097 212.127C347.574 211.815 347.289 210.537 346.765 209.378C347.859 210.017 349.068 210.433 349.445 210.024C349.961 209.474 348.729 207.595 347.597 206.547C349.114 206.681 351.047 206.45 351.17 205.782C351.278 205.232 350.123 204.541 348.898 204.095C350.13 203.783 351.285 203.233 351.247 202.691C351.201 202.044 349.491 201.613 348.013 201.554C349.129 200.714 350.153 199.548 349.838 199.02C349.553 198.537 348.213 198.723 346.973 199.146C347.705 198.136 348.221 196.999 347.828 196.613C347.343 196.13 345.61 196.962 344.425 197.891C344.656 196.449 344.54 194.629 343.87 194.465C343.308 194.324 342.515 195.387 341.968 196.538C341.73 195.327 341.237 194.183 340.675 194.183C339.874 194.183 339.227 196.516 339.227 198.032V198.277C339.15 198.188 339.058 198.091 338.95 197.995C337.818 196.939 335.639 195.765 335.077 196.315C334.684 196.702 335.2 197.839 335.931 198.849C334.692 198.426 333.352 198.232 333.067 198.723C332.682 199.377 334.337 200.996 335.677 201.784C335.6 201.777 335.508 201.769 335.423 201.762C333.852 201.658 331.396 202.126 331.342 202.899C331.304 203.441 332.459 203.991 333.691 204.303C332.459 204.749 331.311 205.44 331.419 205.99C331.542 206.658 333.475 206.889 334.992 206.755C333.86 207.803 332.628 209.682 333.144 210.232C333.521 210.634 334.73 210.217 335.824 209.586C335.3 210.745 335.015 212.023 335.493 212.335C336.124 212.744 337.872 211.317 338.788 210.091C338.696 211.592 339.065 213.658 339.805 213.739C340.113 213.777 340.444 213.457 340.736 212.967L339.897 224.662C339.704 226.022 340.952 226.913 341.067 227.471L341.244 235.391C341.044 234.827 340.767 234.247 340.397 233.675L340.359 233.697C340.405 232.88 340.297 229.336 334.877 228.273C333.598 228.02 332.397 227.85 331.296 227.738C329.995 227.604 329.486 229.321 330.665 229.878C332.366 230.68 333.968 231.691 334.8 232.887C336.932 235.949 339.874 234.18 340.297 233.905C340.767 234.656 341.075 235.414 341.268 236.134L341.36 240.34C341.337 240.436 341.322 240.496 341.322 240.496L341.368 240.511L341.599 250.69L343.755 250.675L342.985 240.273C343.116 239.708 343.516 237.799 342.985 235.815L342.215 227.641L341.214 224.432C341.36 223.436 341.699 222.321 342.384 221.214C342.8 221.489 345.749 223.258 347.882 220.196C348.714 219 350.315 217.99 352.017 217.187C353.187 216.63 352.687 214.913 351.386 215.047V215.025L351.393 215.025ZM341.568 239.106L341.529 237.323C341.614 237.999 341.606 238.601 341.568 239.106Z" fill="#839BB1"/>
<path d="M0 250.482C0 250.973 0.408104 251.366 0.916309 251.366H403.084C403.592 251.366 404 250.973 404 250.482C404 249.992 403.592 249.598 403.084 249.598H0.916309C0.408104 249.598 0 249.992 0 250.482Z" fill="#3F3D56"/>
<path d="M266.846 131.895L272.306 114.196L288.168 113.713L294.613 135.721L266.846 131.895Z" fill="#FFB6B6"/>
<path opacity="0.1" d="M266.846 131.895L272.306 114.196L288.168 113.713L294.613 135.721L266.846 131.895Z" fill="#FFB6B6"/>
<path d="M291.202 129.428L265.422 128.469L257.429 144.333L245.094 214.586L309.797 228.697C309.797 228.697 313.763 150.233 304.838 139.228C295.914 128.224 291.202 129.42 291.202 129.42V129.428Z" fill="#E0DAC4"/>
<path d="M215.695 74.4138C214.617 68.8783 210.79 64.9179 207.132 65.5792C203.475 66.2405 201.388 71.2634 202.466 76.8064C202.866 79.0281 203.806 81.116 205.215 82.9141L210.074 106.327L219.66 104.447L215.41 81.0714C216.049 78.9017 216.141 76.6206 215.679 74.4138L215.695 74.4138Z" fill="#FFB6B6"/>
<path d="M287.344 135.803L234.691 125.794L219.891 82.8472L203.313 86.6366L219.945 150.077L279.544 157.641L287.344 135.803Z" fill="#E0DAC4"/>
<path d="M207.155 5.6241C207.101 5.67611 207.055 5.72069 207.001 5.7727C199.032 -1.86565 186.188 -1.93252 178.126 5.6241C170.041 13.203 169.764 25.6488 177.51 33.5546L177.702 33.7478L206.231 62.0944L235.807 34.3794L235.723 34.2976C235.769 34.253 235.823 34.2085 235.877 34.1639C244.046 26.5107 244.231 13.9163 236.3 6.04019C228.369 -1.84336 215.317 -2.02168 207.155 5.63153V5.6241Z" fill="#2EA8EC"/>
<path d="M214.208 146.205C214.116 146.295 214.024 146.391 213.931 146.48C199.247 132.422 175.6 132.296 160.755 146.205C145.863 160.167 145.354 183.089 159.623 197.645L159.977 198.01L212.522 250.215L266.985 199.169L266.831 199.02C266.923 198.938 267.016 198.857 267.108 198.775C282.146 184.68 282.501 161.49 267.893 146.971C253.286 132.459 229.254 132.118 214.208 146.213V146.205Z" fill="#EFE47B"/>
<path d="M294.543 204.392C294.543 204.392 314.001 220.033 306.779 229.521C299.564 239.01 275.016 255.996 263.928 250.727C252.84 245.459 229.824 207.386 229.824 207.386L223.803 246.388L208.048 245.043C208.048 245.043 196.606 189.955 207.155 181.507C217.712 173.058 265.76 187.993 265.76 187.993L294.536 204.399L294.543 204.392Z" fill="#2F2E41"/>
<path d="M211.983 239.864L207.471 253.395L198.069 266.108L205.276 276.518L228.184 261.962L228.107 254.472L224.511 249.799L221.97 240.838L211.983 239.864Z" fill="#FFB6B6"/>
<path d="M204.776 271.391L199.024 262.371L179.219 287.255C179.219 287.255 180.136 293.794 186.896 291.52C193.657 289.246 235.568 268.516 234.436 266.383C233.305 264.251 228.661 252.793 228.661 252.793L207.009 272.431L204.783 271.384L204.776 271.391Z" fill="#2F2E41"/>
<path d="M216.934 204.266C211.121 204.823 206.709 208.167 207.078 211.733C207.448 215.3 212.453 217.744 218.266 217.187C220.592 216.994 222.833 216.266 224.812 215.069L249.398 212.417L248.281 203.04L223.78 205.113C221.601 204.31 219.252 204.021 216.934 204.273L216.934 204.266Z" fill="#FFB6B6"/>
<path d="M286.497 140.677L271.62 190.431L226.005 200.952L228.485 217.224L295.421 206.695L308.365 150.054L286.497 140.677Z" fill="#E0DAC4"/>
<path d="M278.219 119.493C289.854 119.493 299.287 110.392 299.287 99.1641C299.287 87.9366 289.854 78.8348 278.219 78.8348C266.584 78.8348 257.152 87.9366 257.152 99.1641C257.152 110.392 266.584 119.493 278.219 119.493Z" fill="#FFB6B6"/>
<path d="M279.898 71.8281C279.289 72.1699 278.473 71.6498 278.273 70.9959C278.081 70.3421 278.304 69.6436 278.535 69.0046C278.912 67.9198 279.289 66.835 279.674 65.7576C280.483 63.4542 281.338 61.069 283.086 59.3155C285.719 56.6703 289.908 55.9941 293.681 56.4845C298.524 57.1087 303.298 59.6424 305.554 63.8257C307.803 68.0089 306.848 73.8492 302.782 76.4572C308.581 82.8695 310.598 90.0175 310.282 98.5178C309.967 107.025 300.357 114.85 294.097 120.838C292.695 120.021 291.425 116.187 292.195 114.79C292.965 113.401 291.864 111.781 292.811 110.503C293.758 109.225 294.559 111.261 293.596 109.99C292.988 109.188 295.36 107.33 294.459 106.855C290.093 104.521 288.637 99.2682 285.888 95.241C282.577 90.389 276.91 87.0974 270.919 86.555C267.616 86.2578 264.128 86.8002 261.425 88.6503C258.715 90.5005 256.967 93.807 257.591 96.95C255.966 95.3599 255.157 93.0194 255.458 90.8051C255.766 88.5909 257.175 86.5401 259.177 85.4107C257.96 81.5321 259 77.0665 261.826 74.0647C264.652 71.0628 276.102 71.5755 280.221 72.3631L279.905 71.8356L279.898 71.8281Z" fill="#2F2E41"/>
<path d="M280.545 86.6664C286.004 87.2385 289.946 91.8007 293.273 96.0137C295.19 98.4434 297.2 101.126 297.154 104.18C297.108 107.263 294.967 109.916 293.943 112.843C292.272 117.628 293.897 123.313 297.878 126.589C293.951 127.31 289.7 124.464 289.022 120.66C288.229 116.232 291.71 111.959 291.302 107.479C290.94 103.533 287.721 100.502 284.98 97.5518C282.239 94.6019 279.675 90.6936 280.93 86.9264L280.545 86.6738L280.545 86.6664Z" fill="#2F2E41"/>
</g>
<defs>
<clipPath id="clip0_465_1176">
<rect width="404" height="292" fill="white"/>
</clipPath>
</defs>
</svg>
