<svg width="404" height="394" viewBox="0 0 404 394" fill="none" xmlns="http://www.w3.org/2000/svg">
<path d="M134.37 220.394C142.041 207.713 150.212 194.096 163.87 188.339C177.236 182.704 192.047 188.473 206.472 189.998C220.809 191.514 236.908 188.321 248.221 197.258C259.539 206.198 261.323 222.247 264.967 236.203C268.367 249.223 270.293 262.224 268.674 275.583C266.879 290.392 264.89 305.996 255.142 317.287C244.99 329.045 229.904 335.714 214.578 338.242C199.444 340.738 184.123 337.378 170.029 331.326C156.137 325.36 143.862 316.259 134.949 304.046C125.939 291.7 119.474 277.194 119.368 261.91C119.264 246.892 126.597 233.245 134.37 220.394Z" fill="#F7EECF" fill-opacity="0.85"/>
<path d="M143.854 69.1004C150.845 62.1391 163.342 68.4301 172.922 66.0744C181.691 63.9181 188.691 56.9988 197.651 55.8718C207.683 54.61 220.101 52.239 227.415 59.2199C235.163 66.6145 227.189 81.8338 233.734 90.3114C241.618 100.524 261.307 98.1208 266.548 109.911C271.17 120.308 261.258 131.711 256.79 142.177C252.461 152.315 248.076 162.42 240.65 170.568C232.962 179.003 224.18 187.486 213.08 190.139C202.093 192.765 190.868 188.156 180.004 185.064C170.154 182.26 158.889 180.616 152.244 172.823C145.597 165.027 147.683 153.219 144.537 143.469C142.087 135.873 136.414 129.489 135.699 121.54C134.985 113.588 139.258 106.267 140.485 98.3779C142.014 88.5478 136.805 76.1204 143.854 69.1004Z" fill="#D9DDE0" fill-opacity="0.65"/>
<path d="M84.7871 159.964C91.9014 152.337 102.119 148.779 111.744 144.762C120.457 141.126 129.5 135.699 138.781 137.431C148.221 139.193 153.231 149.942 161.878 154.12C168.921 157.522 176.96 157.262 184.456 159.497C195.143 162.683 211.915 159.724 215.772 170.188C219.855 181.266 201.606 189.742 199.911 201.427C198.594 210.504 207.256 218.409 207.447 227.579C207.672 238.423 210.29 253.357 201.109 259.133C190.894 265.56 177.684 255.192 165.69 253.849C158.32 253.024 151.02 253.986 143.715 252.708C136.843 251.505 130.793 247.913 123.951 246.547C114.45 244.65 101.448 250.644 95.4144 243.063C89.4328 235.548 102.628 223.484 98.6399 214.746C93.301 203.049 73.8063 201.28 70.6541 188.814C67.9998 178.318 77.4021 167.881 84.7871 159.964Z" fill="#EAEAFF" fill-opacity="0.85"/>
<g clip-path="url(#clip0_465_1177)">
<path d="M243.427 128.07L241.849 136.369L249.717 138.591L248.739 129.731L243.427 128.07Z" fill="#D4B0B5"/>
<path d="M197 299.857C197 300.118 197.209 300.328 197.47 300.328H403.531C403.791 300.328 404 300.118 404 299.857C404 299.597 403.791 299.387 403.531 299.387H197.47C197.209 299.387 197 299.597 197 299.857Z" fill="#3F3D56"/>
<path d="M337.469 187.176H256.326C247.124 187.176 239.664 194.648 239.664 203.864V282.677C239.664 291.894 247.124 299.366 256.326 299.366H337.469C346.671 299.366 354.13 291.894 354.13 282.677V203.864C354.13 194.648 346.671 187.176 337.469 187.176Z" fill="white"/>
<path d="M337.469 299.761H256.326C246.921 299.761 239.27 292.097 239.27 282.677V203.865C239.27 194.445 246.921 186.781 256.326 186.781H337.469C346.873 186.781 354.525 194.445 354.525 203.865V282.677C354.525 292.097 346.873 299.761 337.469 299.761ZM256.326 187.571C247.356 187.571 240.059 194.88 240.059 203.865V282.677C240.059 291.662 247.356 298.971 256.326 298.971H337.469C346.438 298.971 353.736 291.662 353.736 282.677V203.865C353.736 194.88 346.438 187.571 337.469 187.571L256.326 187.571Z" fill="#3F3D56"/>
<path d="M343.347 221.344H310.731C309.348 221.344 308.222 220.217 308.222 218.831C308.222 217.445 309.348 216.318 310.731 216.318H343.347C344.73 216.318 345.855 217.445 345.855 218.831C345.855 220.217 344.73 221.344 343.347 221.344Z" fill="#839BB1"/>
<path d="M312.749 241.106H281.046C280.246 241.106 279.596 240.455 279.596 239.654C279.596 238.854 280.246 238.203 281.046 238.203H312.749C313.548 238.203 314.198 238.854 314.198 239.654C314.198 240.455 313.548 241.106 312.749 241.106Z" fill="#839BB1"/>
<path d="M267.939 192.573H249.839C249.771 192.573 249.717 192.628 249.717 192.696V194.806C249.717 194.874 249.771 194.929 249.839 194.929H267.939C268.007 194.929 268.062 194.874 268.062 194.806V192.696C268.062 192.628 268.007 192.573 267.939 192.573Z" fill="#839BB1"/>
<path d="M328.907 194.929C329.946 194.929 330.788 194.085 330.788 193.044C330.788 192.003 329.946 191.16 328.907 191.16C327.868 191.16 327.025 192.003 327.025 193.044C327.025 194.085 327.868 194.929 328.907 194.929Z" fill="#3F3D56"/>
<path d="M334.081 194.929C335.12 194.929 335.963 194.085 335.963 193.044C335.963 192.003 335.12 191.16 334.081 191.16C333.042 191.16 332.2 192.003 332.2 193.044C332.2 194.085 333.042 194.929 334.081 194.929Z" fill="#3F3D56"/>
<path d="M339.255 194.929C340.295 194.929 341.137 194.085 341.137 193.044C341.137 192.003 340.295 191.16 339.255 191.16C338.216 191.16 337.374 192.003 337.374 193.044C337.374 194.085 338.216 194.929 339.255 194.929Z" fill="#3F3D56"/>
<path d="M256.128 248.878C256.128 249.139 256.337 249.349 256.598 249.349H337.197C337.457 249.349 337.666 249.139 337.666 248.878C337.666 248.618 337.457 248.408 337.197 248.408H256.598C256.337 248.408 256.128 248.618 256.128 248.878Z" fill="#3F3D56"/>
<path d="M280.709 132.88C282.425 131.46 284.548 131.196 285.45 132.29C286.352 133.384 285.692 135.422 283.975 136.842C283.298 137.419 282.491 137.825 281.625 138.025L274.279 143.951L271.576 140.438L279.105 134.97C279.466 134.155 280.016 133.439 280.709 132.88Z" fill="#FFB6B6"/>
<path d="M238.25 146.25C238.246 145.988 238.248 143.702 239.938 142.257C241.878 140.598 244.617 141.269 245.577 141.505C247.796 142.049 247.978 143.002 250.062 143.982C253.96 145.815 249.075 144.877 251.395 144.289C252.198 144.086 263.749 143.283 266.624 141.511C272.216 138.063 276.026 135.973 276.026 135.973L278.517 140.962C278.517 140.962 274.915 145.979 269.846 149.695C264.646 153.507 262.047 155.413 258.096 156.149C257.755 156.213 249.387 157.644 242.648 152.6C241.11 151.45 238.293 149.342 238.25 146.25Z" fill="#6C63FF"/>
<path d="M245.976 133.56C250.768 133.56 254.653 129.668 254.653 124.868C254.653 120.068 250.768 116.177 245.976 116.177C241.184 116.177 237.299 120.068 237.299 124.868C237.299 129.668 241.184 133.56 245.976 133.56Z" fill="#FFB6B6"/>
<path d="M313.93 183.259L304.994 174.097L300.381 178.917L307.039 187.702L313.642 188.458L313.93 183.259Z" fill="#FFB6B6"/>
<path d="M262.905 166.078C263.428 166.122 265.089 166.455 266.676 165.58C267.76 164.983 268.315 164.095 268.503 163.813C270.831 160.31 279.768 154.848 287.788 154.512C289.605 154.436 290.8 154.647 291.887 155.214C293.427 156.019 294.043 157.171 295.998 159.871C297.067 161.347 298.251 162.738 299.333 164.206C305.67 172.795 308.073 173.47 307.827 176.224C307.555 179.279 304.265 182.178 302.078 181.843C301.183 181.706 300.836 181.082 299.64 179.82C296.132 176.118 294.68 176.802 292.183 173.966C289.267 170.656 289.649 167.911 288.128 167.805C286.717 167.707 286.117 170.048 283.106 173.159C281.727 174.582 280.746 175.235 277.756 177.313C266.113 185.403 265.927 185.972 263.578 186.617C262.55 186.9 255.253 188.903 252.654 185.715C248.587 180.725 258.196 165.686 262.905 166.078Z" fill="#2F2E41"/>
<path d="M311.198 185.33C311.855 185.034 312.624 184.688 312.871 183.894C313.038 183.356 312.942 182.693 312.596 182.234C312.197 181.706 311.606 181.636 311.63 181.542C311.667 181.4 313.063 181.456 314.596 181.999C314.885 182.101 316.196 182.581 317.863 183.884C319.199 184.929 319.019 185.138 319.856 185.74C322.427 187.589 324.839 186.132 326.23 187.866C326.767 188.535 326.996 189.485 326.77 190.253C326.316 191.795 324.109 192.326 322.903 192.6C319.999 193.26 317.801 192.721 315.505 192.334C307.699 191.016 303.313 192.216 302.726 190.405C302.614 190.062 302.795 190.091 303.397 187.575C303.991 185.092 303.972 184.41 304.477 184.211C305.239 183.912 305.75 185.273 307.669 185.739C309.369 186.152 310.772 185.521 311.198 185.33Z" fill="#2F2E41"/>
<path d="M298.043 213.232L295.785 200.625L289.267 202.018L289.851 213.032L294.891 217.372L298.043 213.232Z" fill="#FFB6B6"/>
<path d="M265.455 170.316C265.863 170.646 267.05 171.856 268.854 172.025C270.085 172.14 271.043 171.718 271.357 171.59C275.247 170.001 285.703 170.508 292.528 174.741C294.074 175.7 294.945 176.547 295.526 177.627C296.35 179.16 296.213 180.459 296.317 183.793C296.374 185.616 296.574 187.433 296.647 189.256C297.075 199.928 298.684 201.837 296.937 203.978C294.999 206.352 290.652 206.901 289.03 205.394C288.366 204.777 288.429 204.066 288.147 202.348C287.319 197.312 285.735 197.062 285.258 193.311C284.701 188.931 286.556 186.875 285.357 185.931C284.245 185.056 282.436 186.657 278.2 187.537C276.261 187.939 275.083 187.928 271.445 187.965C257.275 188.111 256.803 188.477 254.497 187.689C253.488 187.345 246.327 184.899 245.964 180.798C245.396 174.382 261.777 167.342 265.455 170.316Z" fill="#2F2E41"/>
<path d="M294.622 213.408C295.331 213.534 296.161 213.68 296.811 213.161C297.251 212.81 297.543 212.207 297.514 211.634C297.48 210.972 297.031 210.582 297.103 210.518C297.213 210.421 298.337 211.252 299.301 212.563C299.483 212.811 300.299 213.945 300.947 215.961C301.467 217.577 301.201 217.649 301.556 218.618C302.647 221.594 305.459 221.745 305.638 223.962C305.708 224.817 305.364 225.732 304.747 226.241C303.507 227.262 301.383 226.46 300.232 226.008C297.459 224.921 295.942 223.238 294.259 221.627C288.539 216.146 284.237 214.672 284.766 212.842C284.867 212.496 285 212.622 286.908 210.879C288.792 209.158 289.158 208.583 289.688 208.703C290.486 208.883 290.146 210.298 291.472 211.762C292.648 213.06 294.162 213.327 294.622 213.408Z" fill="#2F2E41"/>
<path d="M247.159 126.53C247.497 125.32 247.072 124.879 247.505 124.335C247.505 124.335 247.679 124.117 249.235 123.527C248.776 120.859 249.119 120.408 249.119 120.408C249.515 119.888 250.309 119.762 250.849 119.83C251.992 119.974 252.194 121.009 252.925 120.986C253.935 120.953 255.146 118.929 254.77 117.174C254.463 115.742 253.141 114.679 252.81 114.864C252.481 115.046 251.298 114.24 250.849 114.401C250.543 114.512 249.1 114.365 248.773 114.517C248.416 114.683 247.394 115.716 247.296 115.586C246.616 114.681 246.631 114.365 246.236 114.17C245.538 113.825 244.778 114.464 243.469 115.095C240.774 116.393 239.985 115.618 238.741 116.712C238.112 117.264 237.775 118.319 237.126 120.408C236.219 123.329 235.766 124.789 236.204 126.183C236.65 127.605 237.308 127.296 238.279 129.302C239.36 131.536 238.988 132.834 240.009 133.345C240.799 133.74 242.067 133.489 242.546 132.768C243.366 131.533 241.247 129.862 241.97 127.916C242.413 126.722 243.782 125.816 244.622 126.068C245.571 126.353 245.641 128.058 246.236 128.032C246.746 128.009 247.1 126.741 247.159 126.53Z" fill="#2F2E41"/>
<path d="M240.586 134.847C242.361 132.852 249.594 134.916 250.273 138.081C250.552 139.382 249.521 139.932 249.811 141.431C250.236 143.623 252.64 143.473 254.424 145.704C256.957 148.872 254.348 151.969 257.192 157.255C257.8 158.385 258.312 159.337 259.383 160.259C261.841 162.373 264.128 161.648 265.379 163.608C266.315 165.075 265.931 166.882 265.841 167.305C265.471 169.04 264.47 169.463 263.765 170.886C262.591 173.252 263.92 174.989 263.996 177.816C264.09 181.353 262.213 186.257 258.46 187.866C254.244 189.673 249.159 186.679 246.698 183.707C245.229 181.934 244.803 180.298 244.161 178.278C241.29 169.253 239.668 170.069 237.472 162.915C234.962 154.737 234.469 145.156 237.472 142.124C237.87 141.722 238.966 140.793 239.663 139.12C240.602 136.87 239.791 135.739 240.586 134.847Z" fill="#6C63FF"/>
<path d="M266.822 181.268C268.199 183.02 268.412 185.151 267.299 186.029C266.185 186.906 264.167 186.197 262.79 184.444C262.231 183.752 261.845 182.935 261.665 182.062L255.926 174.565L258.891 172.299L264.775 179.612C265.579 179.992 266.281 180.56 266.822 181.268Z" fill="#FFB6B6"/>
<path d="M245.803 142.447C246.058 142.389 248.293 141.925 250.049 143.287C252.067 144.852 251.97 147.674 251.935 148.664C251.856 150.951 250.961 151.323 250.429 153.566C249.434 157.763 251.33 161.663 252.377 163.817C252.74 164.563 253.905 166.845 256.224 169.303C260.735 174.083 264.759 176.598 264.759 176.598L260.436 180.447C260.436 180.447 253.549 178.345 248.883 174.132C244.096 169.812 236.735 154.524 235.209 150.8C235.078 150.479 236.939 155.693 240.494 148.055C241.304 146.313 242.79 143.121 245.803 142.447Z" fill="#6C63FF"/>
<path d="M305.081 259.644C302.333 260.066 300.322 261.828 300.591 263.58C300.859 265.331 303.304 266.409 306.053 265.986C307.153 265.833 308.201 265.417 309.108 264.775L320.729 262.84L319.953 258.239L308.359 259.883C307.301 259.542 306.177 259.46 305.081 259.644Z" fill="#FFB6B6"/>
<path d="M355.157 245.302L350.651 254.879L327.999 262.517L309.202 263.522L308.731 259L329.102 254.733L350.006 244.839L355.157 245.302Z" fill="#E0DAC4"/>
<path d="M313.378 281.667L309.332 291.917L304.097 288.341L307.191 277.615L313.378 281.667Z" fill="#FFB6B6"/>
<path d="M296.482 277.854L285.774 288.103L290.057 292.632L301.004 284.051L296.482 277.854Z" fill="#FFB6B6"/>
<path d="M357.164 244.483L357.045 243.649L354.308 238.286L345.265 240.67L346.931 248.059L357.164 244.483Z" fill="#FFB6B6"/>
<path d="M353.356 280.237L353.634 283.817C353.634 283.817 354.784 298.829 345.503 300.021C336.223 301.213 332.177 302.404 326.704 293.109L318.137 277.854L313.133 283.817L306.477 278.569C306.477 278.569 311.236 259.977 315.044 259.262C315.519 259.172 315.995 259.128 316.464 259.118C319.616 259.052 322.587 260.596 324.473 263.127L335.271 277.615L339.197 275.828L353.356 280.237Z" fill="#2F2E41"/>
<path d="M301.956 291.44L304.097 287.388L310.284 291.678C310.284 291.678 311.712 296.922 309.57 297.637C307.429 298.352 301.48 297.399 301.48 297.399C301.48 297.399 290.533 299.782 290.295 297.637C290.057 295.492 295.293 295.015 295.293 295.015L301.956 291.44Z" fill="#2F2E41"/>
<path d="M325.276 288.58L308.738 278.141L300.29 285.719L294.579 279.045C294.579 279.045 305.049 263.552 308.143 262.837C311.236 262.122 316.234 261.645 316.234 261.645L331.463 275.708L325.276 288.58Z" fill="#2F2E41"/>
<path d="M285.536 287.149L291.009 293.108L290.287 293.727C290.287 293.727 288.867 299.921 285.536 297.826C282.204 295.73 281.966 295.254 281.966 295.254C281.966 295.254 272.448 297.399 271.496 293.585C270.544 289.771 273.162 290.486 273.162 290.486L275.538 291.917L285.536 287.149Z" fill="#2F2E41"/>
<path d="M348.121 243.292C352.326 243.292 355.736 239.877 355.736 235.664C355.736 231.452 352.326 228.037 348.121 228.037C343.915 228.037 340.506 231.452 340.506 235.664C340.506 239.877 343.915 243.292 348.121 243.292Z" fill="#FFB6B6"/>
<path d="M346.336 246.509L357.283 243.172C357.283 243.172 361.566 253.183 360.852 257.712C360.138 262.241 353.634 283.817 353.634 283.817L339.197 275.827C339.197 275.827 338.959 271.06 338.245 268.915C337.531 266.77 335.271 260.215 340.268 254.733C345.265 249.25 346.336 246.509 346.336 246.509Z" fill="#E0DAC4"/>
<path d="M322.244 296.56C320.462 298.698 320.119 301.352 321.478 302.487C322.836 303.623 325.381 302.81 327.163 300.671C327.887 299.826 328.398 298.821 328.653 297.738L336.087 288.584L332.466 285.649L324.859 294.566C323.841 295.012 322.944 295.696 322.244 296.56Z" fill="#FFB6B6"/>
<path d="M354.732 251.318L357.32 261.584L344.656 281.888L331.729 294.902L327.539 291.42L340.577 275.171L350.459 254.235L354.732 251.318Z" fill="#E0DAC4"/>
<path d="M341.101 234.353C343.054 234.348 343.165 234.361 343.48 234.353C345.903 234.289 346.536 233.334 347.764 233.4C349.955 233.516 347.063 244.52 345.86 249.608C344.68 254.598 348.667 259.069 348.954 259.381C353 263.789 360.108 264.595 361.328 262.718C362.315 261.198 358.816 258.888 359.662 255.567C360.489 252.321 364.306 252.666 365.373 249.608C366.491 246.405 362.735 244.79 360.376 236.975C359.021 232.487 359.261 231.651 357.996 228.871C354.617 221.44 338.051 224.604 339.911 231.493C340.271 232.825 339.313 234.357 341.101 234.353Z" fill="#2F2E41"/>
<path d="M365.417 143.805H285.386C283.123 143.805 281.281 141.961 281.281 139.694V97.1113C281.281 94.8445 283.123 93 285.386 93H365.417C367.68 93 369.522 94.8445 369.522 97.1113V139.694C369.522 141.961 367.68 143.805 365.417 143.805Z" fill="white"/>
<path d="M365.417 143.805H285.386C283.123 143.805 281.281 141.961 281.281 139.694V97.1113C281.281 94.8445 283.123 93 285.386 93H365.417C367.68 93 369.522 94.8445 369.522 97.1113V139.694C369.522 141.961 367.68 143.805 365.417 143.805ZM285.386 93.6866C283.501 93.6866 281.967 95.2229 281.967 97.1113V139.694C281.967 141.582 283.501 143.119 285.386 143.119H365.417C367.302 143.119 368.836 141.582 368.836 139.694V97.1113C368.836 95.2229 367.302 93.6866 365.417 93.6866H285.386Z" fill="#3F3D56"/>
<path d="M359.24 98.149C359.808 98.149 360.268 97.688 360.268 97.1192C360.268 96.5504 359.808 96.0894 359.24 96.0894C358.672 96.0894 358.212 96.5504 358.212 97.1192C358.212 97.688 358.672 98.149 359.24 98.149Z" fill="#3F3D56"/>
<path d="M361.982 98.149C362.55 98.149 363.01 97.688 363.01 97.1192C363.01 96.5504 362.55 96.0894 361.982 96.0894C361.414 96.0894 360.954 96.5504 360.954 97.1192C360.954 97.688 361.414 98.149 361.982 98.149Z" fill="#3F3D56"/>
<path d="M364.724 98.149C365.292 98.149 365.752 97.688 365.752 97.1192C365.752 96.5504 365.292 96.0894 364.724 96.0894C364.156 96.0894 363.696 96.5504 363.696 97.1192C363.696 97.688 364.156 98.149 364.724 98.149Z" fill="#3F3D56"/>
<path d="M287.107 113.769C286.824 113.769 286.593 114 286.593 114.283C286.593 114.422 286.647 114.55 286.744 114.645C286.841 114.745 286.969 114.798 287.107 114.798H364.038C364.322 114.798 364.552 114.567 364.552 114.283C364.552 114.145 364.499 114.017 364.402 113.922C364.304 113.822 364.176 113.769 364.038 113.769H287.107Z" fill="#E6E6E6"/>
<path d="M354.442 113.597V114.97H287.107C286.919 114.97 286.748 114.894 286.624 114.767C286.497 114.644 286.422 114.472 286.422 114.283C286.422 113.906 286.73 113.597 287.107 113.597H354.442Z" fill="#839BB1"/>
<path d="M363.182 111.022H356.327C355.571 111.022 354.956 110.406 354.956 109.649C354.956 108.892 355.571 108.276 356.327 108.276H363.182C363.937 108.276 364.552 108.892 364.552 109.649C364.552 110.406 363.937 111.022 363.182 111.022Z" fill="#E6E6E6"/>
<path d="M318.286 103.813H287.621C286.866 103.813 286.251 103.197 286.251 102.44C286.251 101.683 286.866 101.067 287.621 101.067H318.286C319.042 101.067 319.657 101.683 319.657 102.44C319.657 103.197 319.042 103.813 318.286 103.813Z" fill="#E6E6E6"/>
<path d="M287.107 129.216C286.824 129.216 286.593 129.447 286.593 129.731C286.593 129.869 286.647 129.997 286.744 130.092C286.841 130.192 286.969 130.246 287.107 130.246H364.038C364.322 130.246 364.552 130.015 364.552 129.731C364.552 129.592 364.499 129.464 364.402 129.37C364.304 129.269 364.176 129.216 364.038 129.216H287.107Z" fill="#E6E6E6"/>
<path d="M328.053 129.044V130.418H287.107C286.919 130.418 286.748 130.342 286.624 130.215C286.497 130.091 286.422 129.92 286.422 129.731C286.422 129.353 286.73 129.044 287.107 129.044H328.053Z" fill="#839BB1"/>
<path d="M363.182 126.47H356.327C355.571 126.47 354.956 125.854 354.956 125.097C354.956 124.339 355.571 123.724 356.327 123.724H363.182C363.937 123.724 364.552 124.339 364.552 125.097C364.552 125.854 363.937 126.47 363.182 126.47Z" fill="#E6E6E6"/>
</g>
<defs>
<clipPath id="clip0_465_1177">
<rect width="207" height="210" fill="white" transform="translate(197 93)"/>
</clipPath>
</defs>
</svg>
