<svg width="40" height="40" viewBox="0 0 40 40" fill="none" xmlns="http://www.w3.org/2000/svg">
<g id="1_circle" clip-path="url(#clip0_442_423)">
<path id="general" d="M39.2399 19.98C39.4266 23.56 39.5799 26.36 38.0666 29.3533C36.6533 32.16 34.5399 33.6133 32.3799 35.1C30.4066 36.46 25.7066 39.6066 19.0466 39.5533C16.9599 39.54 12.7733 39.5066 8.81993 36.7066C5.97993 34.6933 4.6466 32.2333 3.55993 30.2333C2.43327 28.16 0.206598 23.3066 0.719932 17.0066C0.919932 14.56 1.1466 11.7933 2.99993 8.95331C5.13327 5.67997 8.33993 4.00664 10.5133 2.86664C11.5999 2.29997 12.9533 1.58664 14.8733 1.07331C20.3399 -0.400027 25.1066 1.04664 27.2866 1.91331C28.6999 2.47331 31.7733 3.73331 34.4466 6.77331C35.9933 8.52664 36.7866 10.18 37.2199 11.1066C38.9333 14.7066 39.1333 17.88 39.2399 19.98Z" fill="#505285"/>
</g>
<defs>
<clipPath id="clip0_442_423">
<rect width="40" height="40" fill="white"/>
</clipPath>
</defs>
</svg>
