<svg width="40" height="40" viewBox="0 0 40 40" fill="none" xmlns="http://www.w3.org/2000/svg">
<g id="7_zigzag">
<path id="general" d="M0.379883 30.7199C0.379883 30.7199 1.28655 29.3199 2.05988 28.0599C2.83322 26.7999 4.57988 23.7932 4.57988 23.7932C4.57988 23.7932 7.09988 25.1199 7.86655 25.4732C8.63322 25.8266 11.4999 27.2932 11.4999 27.2932C11.4999 27.2932 12.3399 22.7466 12.6866 21.5599C13.0332 20.3732 13.5266 16.7332 13.5266 16.7332C13.5266 16.7332 18.7732 18.8999 19.9599 19.1132C21.1465 19.3266 24.5732 20.9999 24.5732 20.9999C24.5732 20.9999 24.2932 14.7799 24.5732 13.5199C24.8532 12.2599 24.5732 8.27322 24.5732 8.27322C24.5732 8.27322 31.4265 7.92656 32.8932 7.71322C34.3599 7.49989 39.6065 7.71322 39.6065 7.71322V9.11322L38.7666 11.6332C38.7666 11.6332 35.3399 11.8399 34.4999 11.4932C33.6599 11.1466 27.5799 11.0732 27.5799 11.0732C27.5799 11.0732 27.7199 15.4066 27.7865 17.0866C27.8532 18.7666 27.5799 25.0599 27.5799 25.0599C27.5799 25.0599 20.9999 22.3332 19.9532 22.0532C18.9065 21.7732 16.1799 20.9332 16.1799 20.9332C16.1799 20.9332 15.4132 24.6399 14.8532 26.4599C14.2932 28.2799 13.1066 31.3532 13.1066 31.3532C13.1066 31.3532 7.79322 28.4199 7.09322 28.2066C6.38655 27.9932 5.19988 27.0132 5.19988 27.0132C5.19988 27.0132 4.21988 29.5999 4.01322 30.4399C3.80655 31.2799 3.45322 32.3266 3.45322 32.3266L0.379883 30.7199Z" fill="#839BB1"/>
</g>
</svg>
