<svg width="40" height="40" viewBox="0 0 40 40" fill="none" xmlns="http://www.w3.org/2000/svg">
<g id="10_leaves">
<g id="general">
<path id="Vector" d="M4.77358 37.9732C4.77358 37.9732 5.24024 34.6265 5.42691 33.1665C5.60691 31.7065 6.06691 28.5932 6.06691 28.5932C6.06691 28.5932 5.86024 28.1332 4.77358 25.5799C3.68691 23.0265 1.67358 20.5532 1.49358 17.8132C1.31358 15.0732 3.04691 11.6865 5.18024 8.29319C7.25357 4.98652 10.3202 -0.253479 12.7402 0.333187C13.4936 0.513187 14.0669 1.64652 15.1669 3.90652C17.1002 7.85985 17.8269 11.1132 18.0602 12.2199C18.7269 15.4065 19.0536 16.9999 18.7136 18.2932C17.9869 21.0199 15.7469 22.7465 12.7402 25.0665C9.44024 27.6132 8.00691 27.1999 7.70024 29.0399C7.50691 30.2065 7.02024 33.9532 6.92691 35.5665C6.82691 37.1865 6.54024 39.7065 6.54024 39.7065L4.77358 37.9732Z" fill="#E0DAC4"/>
<path id="Vector_2" d="M14.5869 37.2599C15.3602 35.9465 15.9736 34.8199 16.4202 33.9799C17.8069 31.3465 18.2469 30.1665 18.5069 29.3865C18.8336 28.3932 19.0002 27.8999 19.0602 27.2132C19.2469 25.1799 18.3669 24.4332 18.2802 23.1465C18.0402 19.4865 24.5202 16.1399 26.4469 15.1465C28.0269 14.3332 29.2603 13.9132 30.3069 13.5599C33.4803 12.4999 38.7603 11.2999 39.4269 12.6732C39.4669 12.7599 39.5403 12.8865 39.5069 13.1465C39.3469 14.4199 39.1803 15.4332 39.0469 15.7465C38.2136 17.6999 38.5603 18.5665 36.8469 22.6265C35.0936 26.7665 34.2203 28.8399 32.8669 29.7932C30.7003 31.3265 27.1336 32.4865 24.4136 31.2732C22.8802 30.5932 21.7269 29.2265 20.6536 29.7065C20.5002 29.7732 20.3069 29.8999 19.6802 31.0265C18.7869 32.6265 18.7269 33.1865 17.8602 34.9398C17.5336 35.5998 17.4202 35.7599 16.7669 37.0599C16.4736 37.6465 16.2336 38.1332 16.0802 38.4532C15.5802 38.0599 15.0802 37.6599 14.5869 37.2599Z" fill="#839BB1"/>
</g>
</g>
</svg>
