<svg width="40" height="40" viewBox="0 0 40 40" fill="none" xmlns="http://www.w3.org/2000/svg">
<g id="3_hearts">
<g id="general">
<path id="Vector" d="M27.1266 16.3465C27.1266 16.3465 26.7532 13.8465 25.9532 12.0799C25.1532 10.3132 24.3932 8.92653 22.3332 8.77319C20.2732 8.61986 18.0399 10.3199 17.3932 12.5865C16.7466 14.8465 17.6532 20.2599 18.9466 23.4799C20.2332 26.6932 22.2332 30.9665 22.6466 31.9465C23.0532 32.9265 24.3866 36.7932 24.3866 36.7932C24.3866 36.7932 29.5666 28.0865 30.9466 25.6732C32.3266 23.2599 34.9666 17.5865 36.8132 14.2665C38.6599 10.9465 40.0399 7.71319 38.3132 6.10653C36.5866 4.50653 30.7066 2.76653 28.6866 7.12653C26.6599 11.4799 27.1266 16.3465 27.1266 16.3465Z" fill="#F6EED5"/>
<path id="Vector_2" d="M11.5198 38.6267C11.5198 38.6267 8.22646 37.3333 3.57313 30.72C-1.08021 24.1067 1.46646 21.6933 2.89979 21.0533C4.33313 20.4133 6.84646 23.0133 7.42646 24.2333C7.42646 24.2333 7.65313 20.16 9.67313 18.5867C11.6865 17.0133 14.3998 16.78 15.0731 19.44C15.7531 22.0933 13.1465 32.16 12.8665 33.62C12.5931 35.0867 11.5198 38.6267 11.5198 38.6267Z" fill="#839BB1"/>
<path id="Vector_3" d="M9.18653 6.27324C8.3132 4.5199 6.76653 3.7199 5.7132 4.09324C4.9732 4.35324 4.49987 5.18657 4.39987 5.92657C4.2132 7.25324 5.2132 8.36657 7.07987 10.3799C8.19987 11.5932 9.1732 12.4132 9.50653 12.6866C11.4265 14.2866 13.6332 15.6266 13.6332 15.6266C13.7199 14.7266 13.8132 13.4599 13.8199 11.9399C13.8332 10.2199 13.8332 8.39324 13.3465 6.1799C12.8732 4.0199 12.4399 2.16657 11.0065 1.56657C10.9399 1.5399 9.8932 1.11324 9.16653 1.60657C8.26653 2.23324 8.12653 4.1399 9.18653 6.27324Z" fill="#6C63FF"/>
</g>
</g>
</svg>
