<svg width="40" height="40" viewBox="0 0 40 40" fill="none" xmlns="http://www.w3.org/2000/svg">
<g id="2_triangles" clip-path="url(#clip0_442_457)">
<g id="general">
<path id="Vector" d="M4.4935 25.5332C5.4735 25.8865 6.3335 24.4932 9.3135 22.2665C12.0402 20.2332 12.1802 20.7598 15.5402 18.3065C17.8202 16.6465 17.9335 16.2732 19.3068 15.6532C20.8735 14.9465 22.2068 14.7732 22.3468 13.9998C22.4535 13.4065 21.8002 12.8265 21.4335 12.5132C17.4202 9.05316 15.6868 8.11982 15.6868 8.11982C7.8335 3.91982 3.9135 1.81316 3.00017 1.17316C2.66684 0.946489 1.6735 0.233156 1.18017 0.553156C0.800169 0.799823 0.893503 1.57316 0.926836 1.83316C1.84684 9.33982 2.30684 13.0665 2.1735 12.0198C1.82017 9.29982 2.34684 15.2598 3.16684 21.7465C3.4335 23.8598 3.64017 25.2265 4.4935 25.5332Z" fill="#839BB1"/>
<path id="Vector_2" d="M0.940138 36.6864C-0.333196 34.5331 2.89347 30.4864 3.37347 29.8931C5.4268 27.3198 6.7468 27.3864 11.0068 24.0864C15.4735 20.6264 15.9935 19.0264 17.3135 19.3398C19.3468 19.8264 18.1668 23.6398 21.0868 31.5998C21.6668 33.1864 22.9601 36.4331 21.4935 38.2598C21.3668 38.4198 21.2535 38.5264 21.1801 38.5864C18.9401 40.6464 14.2868 38.7998 7.22014 38.0064C3.05347 37.5398 1.62014 37.8398 0.940138 36.6864Z" fill="#ECEAF9"/>
<path id="Vector_3" d="M39.0267 19.16C39.2333 17.0133 39.3733 15.5733 38.58 15.0266C36.8467 13.8266 33.7 18.9866 28.06 19.26C23.7933 19.4666 21.34 16.72 20.1 17.9133C19.5133 18.48 19.8933 19.3266 21.4333 25.2933C22.3267 28.7466 21.82 26.5133 24.6533 35.3466C25.4133 37.72 25.6933 38.6866 26.5 38.9133C27.9 39.3066 29.6333 37.14 31.7467 34.4933C34.3733 31.2 35.8467 28.36 36.3933 27.2533C38.6 22.7866 38.9333 20.0866 39.0267 19.16Z" fill="#F6EED5"/>
<path id="Vector_4" d="M27.8203 16.4664C25.9136 16.2731 25.3669 14.3797 23.0269 11.6731C18.3003 6.19308 13.0669 5.25308 13.4403 3.83308C13.5469 3.41308 14.2269 2.64642 19.7536 2.71975C26.4869 2.80642 39.0736 4.11975 39.3536 7.56642C39.4069 8.18642 37.4469 9.79308 33.5269 12.9931C29.7669 16.0597 28.9136 16.5731 27.8203 16.4664Z" fill="#6C63FF"/>
</g>
</g>
<defs>
<clipPath id="clip0_442_457">
<rect width="40" height="40" fill="white"/>
</clipPath>
</defs>
</svg>
