<svg width="40" height="40" viewBox="0 0 40 40" fill="none" xmlns="http://www.w3.org/2000/svg">
<g id="20_bubbles">
<g id="general">
<path id="Vector" d="M14.5332 9.20678C15.4999 13.5068 11.9132 16.9001 11.5865 17.1934C11.1399 17.6001 7.75318 20.7001 4.47318 19.5134C0.626516 18.1134 0.533182 12.0934 0.519849 11.1801C0.499849 9.79344 0.459849 7.24678 2.27985 5.50678C3.65318 4.19344 5.39985 4.01344 6.43318 3.90011C7.39985 3.80011 9.81985 3.54011 11.9665 5.15344C13.8532 6.58011 14.3932 8.60678 14.5332 9.20678Z" fill="#839BB1"/>
<path id="Vector_2" d="M22.3998 34.5667C21.5798 37.5401 17.1665 38.9001 14.4998 37.4201C12.9665 36.5667 12.4732 35.0201 12.3998 34.7801C11.5598 31.9867 13.5598 28.4401 16.2665 27.9667C17.9465 27.6734 19.3398 28.6467 19.8198 28.9867C21.3798 30.0734 23.0132 32.3467 22.3998 34.5667Z" fill="#839BB1"/>
<path id="Vector_3" d="M33.0332 3.66673C33.6065 5.16007 32.7932 7.08673 31.4132 7.92673C30.3065 8.5934 29.1399 8.3734 28.0799 8.16673C26.1332 7.78673 23.1599 6.46007 23.0332 4.38673C22.9865 3.64007 23.3265 3.0734 23.4198 2.92673C24.5865 1.04007 27.7932 1.38673 28.5132 1.46673C30.0065 1.62007 32.3465 1.8734 33.0332 3.66673Z" fill="#505285"/>
<path id="Vector_4" d="M37.4665 10.0733C37.7731 11.5666 36.7131 13.3799 35.2131 13.4799C33.7065 13.5799 32.2931 11.9199 32.5265 10.3133C32.7198 8.96661 34.0465 7.79328 35.4198 7.99328C36.5198 8.15328 37.2798 9.14661 37.4665 10.0733Z" fill="#839BB1"/>
<path id="Vector_5" d="M20.1864 5.10662C21.0064 6.09329 20.2798 8.36662 18.8998 8.62662C18.0598 8.78662 16.9864 8.19329 16.6998 7.21329C16.3664 6.05996 17.2798 4.90662 18.3264 4.63996C18.9264 4.49329 19.7464 4.57996 20.1864 5.10662Z" fill="#505285"/>
<path id="Vector_6" d="M38.5532 17.8734C39.5599 19.9267 38.6199 22.86 37.2332 23.2C36.3532 23.4134 35.4266 22.5667 35.1932 22.3534C34.2332 21.4734 34.0866 20.3134 34.0132 19.6734C33.9066 18.7067 33.8799 16.2134 35.1932 15.72C36.3132 15.3 37.9066 16.5534 38.5532 17.8734Z" fill="#505285"/>
<path id="Vector_7" d="M39.1398 32.7535C39.0198 33.1668 38.1332 36.1135 35.1598 37.6401C32.8198 38.8401 28.9198 39.2935 26.8265 36.9268C24.9998 34.8735 25.6398 31.9401 25.7265 31.5668C26.2332 29.3868 27.7465 28.1868 29.4665 26.8268C31.3998 25.3001 32.9798 24.0401 34.9732 24.3801C37.4065 24.7935 38.6398 27.2601 38.8198 27.6268C39.9532 29.8868 39.3332 32.0601 39.1398 32.7535Z" fill="#839BB1"/>
<path id="Vector_8" d="M31.7865 16.9667C32.2599 22.1201 28.0865 27.3401 23.7265 27.4134C19.7265 27.4801 16.7465 23.1934 16.3199 22.5934C15.8532 21.9201 15.1265 20.8601 14.7665 19.2801C14.6465 18.7467 13.7799 14.6534 16.6799 11.4201C18.7865 9.06674 22.0199 8.1334 24.9065 8.76674C28.9799 9.66674 31.4665 13.4867 31.7865 16.9667Z" fill="#505285"/>
<path id="Vector_9" d="M12.0398 23.8533C13.0732 28.3533 10.6798 34.5533 6.63984 35.42C6.2865 35.4933 5.17984 35.72 4.03984 35.2C1.1065 33.8666 -0.273497 28.4733 1.81317 24.86C3.7665 21.48 8.67317 19.8266 10.7998 21.4066C11.5998 22.0066 11.8265 22.9266 12.0398 23.8533Z" fill="#505285"/>
</g>
</g>
</svg>
