<svg width="40" height="40" viewBox="0 0 40 40" fill="none" xmlns="http://www.w3.org/2000/svg">
<g id="14_rhombus" clip-path="url(#clip0_442_387)">
<path id="general" d="M22.3535 0.226599C21.0202 0.153265 20.0469 0.819932 17.8269 2.5866C11.8735 7.33327 8.20688 10.7599 8.20688 10.7599C1.60021 16.9399 0.233543 17.6533 0.36021 19.4599C0.42021 20.3266 0.746877 20.2733 5.02021 25.6333C7.96688 29.3199 7.88688 29.4533 9.54688 31.2133C11.4869 33.2733 13.1069 34.5933 14.9869 36.1266C17.8802 38.4866 19.3269 39.6666 20.2202 39.7599C21.9402 39.9466 22.8335 38.9133 29.8535 32.4599C29.8535 32.4599 30.8469 31.5466 36.7735 25.3533C38.5202 23.5266 39.7335 22.2199 39.6402 20.4933C39.5669 19.2266 38.7869 18.1266 37.7402 16.6466C36.8202 15.3399 35.5135 13.9999 35.4002 13.8799C35.1469 13.6199 34.9535 13.4333 34.8869 13.3733C33.0669 11.5933 29.9335 7.57993 29.0135 6.4266C25.7802 2.3666 24.1602 0.333266 22.3535 0.226599Z" fill="#E0DAC4"/>
</g>
<defs>
<clipPath id="clip0_442_387">
<rect width="40" height="40" fill="white"/>
</clipPath>
</defs>
</svg>
