<svg width="40" height="40" viewBox="0 0 40 40" fill="none" xmlns="http://www.w3.org/2000/svg">
<g id="8_star" clip-path="url(#clip0_442_441)">
<path id="general" d="M19.2332 0.253309C18.9266 0.286642 18.7466 0.686642 17.6399 4.95998C17.0399 7.26664 16.4866 9.47331 16.4332 9.46664C16.4332 9.46664 16.4266 9.45998 16.4266 9.43998C16.4266 9.13331 15.5932 8.52664 13.0132 6.70664C10.4332 4.88664 9.67323 3.59331 9.5199 3.97331C9.36656 4.35331 10.8866 7.91998 11.4199 9.43998C11.9532 10.96 13.2399 14.2933 13.2399 14.2933C13.2399 14.2933 10.0532 14.6 8.30656 15.0533C6.5599 15.5066 0.639898 16.0333 0.866565 16.9466C1.09323 17.86 6.02656 19.98 7.77323 21.0466C9.5199 22.1133 12.0199 22.7933 12.0199 22.7933C12.0199 22.7933 8.6799 26.0533 7.31323 27.88C5.94656 29.7 3.59323 33.2666 4.42656 32.9666C5.2599 32.6666 16.5666 28.26 19.2266 26.82C19.2266 26.82 19.9866 33.9533 20.3666 36.38C20.7466 38.8066 20.8199 40.5533 21.8866 39.2666C22.9532 37.98 24.8466 31.0733 25.5266 29.6266C26.2066 28.1866 27.5732 24.24 27.5732 24.24C27.5732 24.24 31.0666 26.06 33.2666 26.9733C35.4666 27.8866 38.8066 30.3866 39.1066 29.7066C39.4132 29.0266 34.7799 22.8 33.7199 21.0533C32.6599 19.3066 29.8532 15.2866 29.8532 15.2866C29.8532 15.2866 35.3199 7.47331 36.1532 4.96664C36.2132 4.78664 36.2799 4.51998 36.1399 4.34664C35.6199 3.67331 32.8199 5.19998 27.8799 7.31998C26.1666 8.05331 24.7866 8.60664 24.0132 8.91331C23.5332 8.00664 22.7799 6.55331 21.8866 4.73998C20.2532 1.40664 19.7932 0.186642 19.2332 0.253309Z" fill="#6C63FF"/>
</g>
<defs>
<clipPath id="clip0_442_441">
<rect width="40" height="40" fill="white"/>
</clipPath>
</defs>
</svg>
