<svg width="18" height="9" viewBox="0 0 18 9" fill="none" xmlns="http://www.w3.org/2000/svg">
<path d="M9.00022 8.80014C8.30022 8.80014 7.60022 8.53014 7.07022 8.00014L0.550221 1.48014C0.410741 1.339 0.33252 1.14857 0.33252 0.950136C0.33252 0.751706 0.410741 0.561275 0.550221 0.420137C0.840221 0.130137 1.32022 0.130137 1.61022 0.420137L8.13022 6.94014C8.61022 7.42014 9.39022 7.42014 9.87022 6.94014L16.3902 0.420137C16.6802 0.130137 17.1602 0.130137 17.4502 0.420137C17.7402 0.710137 17.7402 1.19014 17.4502 1.48014L10.9302 8.00014C10.4002 8.53014 9.70022 8.80014 9.00022 8.80014Z" fill="#6669A0"/>
</svg>
