<svg width="394" height="394" viewBox="0 0 394 394" fill="none" xmlns="http://www.w3.org/2000/svg">
<path d="M134.37 220.394C142.041 207.713 150.212 194.096 163.87 188.339C177.236 182.704 192.047 188.473 206.472 189.998C220.809 191.514 236.908 188.321 248.221 197.258C259.539 206.198 261.323 222.247 264.967 236.203C268.367 249.223 270.293 262.224 268.674 275.583C266.879 290.392 264.89 305.996 255.142 317.287C244.99 329.045 229.904 335.714 214.578 338.242C199.444 340.738 184.123 337.378 170.029 331.326C156.137 325.36 143.862 316.259 134.949 304.046C125.939 291.7 119.474 277.194 119.368 261.91C119.264 246.892 126.597 233.245 134.37 220.394Z" fill="#F7EECF" fill-opacity="0.85"/>
<path d="M143.854 69.1004C150.845 62.1391 163.342 68.4301 172.922 66.0744C181.691 63.9181 188.691 56.9988 197.651 55.8718C207.683 54.61 220.101 52.239 227.415 59.2199C235.163 66.6145 227.189 81.8338 233.734 90.3114C241.618 100.524 261.307 98.1208 266.548 109.911C271.17 120.308 261.258 131.711 256.79 142.177C252.461 152.315 248.076 162.42 240.65 170.568C232.962 179.003 224.18 187.486 213.08 190.139C202.093 192.765 190.868 188.156 180.004 185.064C170.154 182.26 158.889 180.616 152.244 172.823C145.597 165.027 147.683 153.219 144.537 143.469C142.087 135.873 136.414 129.489 135.699 121.54C134.985 113.588 139.258 106.267 140.485 98.3779C142.014 88.5478 136.805 76.1204 143.854 69.1004Z" fill="#D9DDE0" fill-opacity="0.65"/>
<path d="M84.7871 159.964C91.9014 152.337 102.119 148.779 111.744 144.762C120.457 141.126 129.5 135.699 138.781 137.431C148.221 139.193 153.231 149.942 161.878 154.12C168.921 157.522 176.96 157.262 184.456 159.497C195.143 162.683 211.915 159.724 215.772 170.188C219.855 181.266 201.606 189.742 199.911 201.427C198.594 210.504 207.256 218.409 207.447 227.579C207.672 238.423 210.29 253.357 201.109 259.133C190.894 265.56 177.684 255.192 165.69 253.849C158.32 253.024 151.02 253.986 143.715 252.708C136.843 251.505 130.793 247.913 123.951 246.547C114.45 244.65 101.448 250.644 95.4144 243.063C89.4328 235.548 102.628 223.484 98.6399 214.746C93.301 203.049 73.8063 201.28 70.6541 188.814C67.9998 178.318 77.4021 167.881 84.7871 159.964Z" fill="#EAEAFF" fill-opacity="0.85"/>
</svg>
