<svg width="207" height="210" viewBox="0 0 207 210" fill="none" xmlns="http://www.w3.org/2000/svg">
<g clip-path="url(#clip0_152_1796)">
<path d="M46.4269 35.0703L44.8488 43.3692L52.7167 45.5909L51.7391 36.731L46.4269 35.0703Z" fill="#D4B0B5"/>
<path d="M0 206.857C0 207.118 0.209115 207.328 0.469519 207.328H206.531C206.791 207.328 207 207.118 207 206.857C207 206.597 206.791 206.387 206.531 206.387H0.469519C0.209115 206.387 0 206.597 0 206.857Z" fill="#3F3D56"/>
<path d="M140.469 94.1758H59.3256C50.1239 94.1758 42.6644 101.648 42.6644 110.864V189.677C42.6644 198.894 50.1239 206.366 59.3255 206.366H140.469C149.671 206.366 157.13 198.894 157.13 189.677V110.864C157.13 101.648 149.671 94.1758 140.469 94.1758Z" fill="white"/>
<path d="M140.469 206.761H59.3256C49.9211 206.761 42.2699 199.097 42.2699 189.677V110.865C42.2699 101.445 49.9211 93.7808 59.3256 93.7808H140.469C149.873 93.7808 157.525 101.445 157.525 110.865V189.677C157.525 199.097 149.873 206.761 140.469 206.761ZM59.3256 94.5711C50.3561 94.5711 43.059 101.88 43.059 110.865V189.677C43.059 198.662 50.3561 205.971 59.3256 205.971H140.469C149.438 205.971 156.736 198.662 156.736 189.677V110.865C156.736 101.88 149.438 94.5711 140.469 94.5711L59.3256 94.5711Z" fill="#3F3D56"/>
<path d="M146.347 128.344H113.731C112.348 128.344 111.222 127.217 111.222 125.831C111.222 124.445 112.348 123.318 113.731 123.318H146.347C147.73 123.318 148.855 124.445 148.855 125.831C148.855 127.217 147.73 128.344 146.347 128.344Z" fill="#839BB1"/>
<path d="M115.749 148.106H84.0456C83.2463 148.106 82.5959 147.455 82.5959 146.654C82.5959 145.854 83.2463 145.203 84.0456 145.203H115.749C116.548 145.203 117.198 145.854 117.198 146.654C117.198 147.455 116.548 148.106 115.749 148.106Z" fill="#839BB1"/>
<path d="M70.9393 99.5732H52.8391C52.7715 99.5732 52.7167 99.6281 52.7167 99.6958V101.806C52.7167 101.874 52.7715 101.929 52.8391 101.929H70.9393C71.0069 101.929 71.0617 101.874 71.0617 101.806V99.6958C71.0617 99.6281 71.0069 99.5732 70.9393 99.5732Z" fill="#839BB1"/>
<path d="M131.907 101.929C132.946 101.929 133.788 101.085 133.788 100.044C133.788 99.0035 132.946 98.1597 131.907 98.1597C130.868 98.1597 130.025 99.0035 130.025 100.044C130.025 101.085 130.868 101.929 131.907 101.929Z" fill="#3F3D56"/>
<path d="M137.081 101.929C138.12 101.929 138.963 101.085 138.963 100.044C138.963 99.0035 138.12 98.1597 137.081 98.1597C136.042 98.1597 135.2 99.0035 135.2 100.044C135.2 101.085 136.042 101.929 137.081 101.929Z" fill="#3F3D56"/>
<path d="M142.255 101.929C143.295 101.929 144.137 101.085 144.137 100.044C144.137 99.0035 143.295 98.1597 142.255 98.1597C141.216 98.1597 140.374 99.0035 140.374 100.044C140.374 101.085 141.216 101.929 142.255 101.929Z" fill="#3F3D56"/>
<path d="M59.1281 155.878C59.1281 156.139 59.3372 156.349 59.5976 156.349H140.197C140.457 156.349 140.666 156.139 140.666 155.878C140.666 155.618 140.457 155.408 140.197 155.408H59.5976C59.3372 155.408 59.1281 155.618 59.1281 155.878Z" fill="#3F3D56"/>
<path d="M83.7094 39.8804C85.4253 38.4603 87.5477 38.1959 88.4498 39.2899C89.352 40.3838 88.6922 42.4215 86.9755 43.8419C86.2975 44.4188 85.4915 44.8246 84.6248 45.0254L77.2787 50.9507L74.5762 47.4385L82.1051 41.97C82.4656 41.1552 83.0157 40.4386 83.7094 39.8804Z" fill="#FFB6B6"/>
<path d="M41.2496 53.2496C41.2459 52.9876 41.2483 50.7018 42.9377 49.2571C44.8784 47.5975 47.6168 48.2693 48.5773 48.5048C50.796 49.0491 50.978 50.0024 53.0616 50.982C56.9597 52.8146 52.0755 51.8766 54.395 51.2889C55.1979 51.0855 66.7487 50.2831 69.6239 48.5106C75.2159 45.0632 79.026 42.9727 79.026 42.9727L81.5168 47.9624C81.5168 47.9624 77.9151 52.9787 72.8461 56.6949C67.6464 60.5068 65.0466 62.4128 61.0955 63.1492C60.7553 63.2126 52.3873 64.6438 45.6475 59.6001C44.1102 58.4497 41.2935 56.3418 41.2496 53.2496Z" fill="#6C63FF"/>
<path d="M48.976 40.5596C53.7681 40.5596 57.6529 36.6684 57.6529 31.8684C57.6529 27.0684 53.7681 23.1772 48.976 23.1772C44.1839 23.1772 40.2992 27.0684 40.2992 31.8684C40.2992 36.6684 44.1839 40.5596 48.976 40.5596Z" fill="#FFB6B6"/>
<path d="M116.93 90.2593L107.994 81.0972L103.381 85.9168L110.039 94.7016L116.642 95.4581L116.93 90.2593Z" fill="#FFB6B6"/>
<path d="M65.9052 73.078C66.4279 73.1215 68.0888 73.4548 69.6764 72.5799C70.7598 71.9829 71.3155 71.0951 71.5031 70.8127C73.8314 67.3101 82.768 61.8482 90.7883 61.5121C92.6045 61.4359 93.8 61.6467 94.8867 62.2141C96.4275 63.0186 97.0426 64.171 98.9978 66.8705C100.067 68.3472 101.251 69.7383 102.333 71.2055C108.67 79.7954 111.073 80.4697 110.827 83.2235C110.555 86.279 107.265 89.1778 105.078 88.8431C104.183 88.7061 103.836 88.0824 102.64 86.8198C99.1317 83.1179 97.6804 83.8018 95.183 80.9663C92.2672 77.6558 92.6489 74.9109 91.1276 74.8049C89.7169 74.7065 89.1173 77.0482 86.1056 80.1589C84.7274 81.5823 83.746 82.2353 80.7563 84.3129C69.1133 92.4035 68.9275 92.972 66.5778 93.6173C65.5498 93.8996 58.2533 95.9033 55.6541 92.7147C51.5867 87.7248 61.1957 72.6861 65.9052 73.078Z" fill="#2F2E41"/>
<path d="M114.198 92.3296C114.855 92.034 115.624 91.6884 115.871 90.8936C116.038 90.3558 115.942 89.6927 115.596 89.2344C115.197 88.7057 114.606 88.636 114.63 88.5425C114.667 88.4001 116.063 88.4557 117.596 88.9985C117.885 89.101 119.196 89.5806 120.863 90.8842C122.199 91.9286 122.019 92.138 122.856 92.7402C125.427 94.5888 127.839 93.1319 129.23 94.8655C129.767 95.5346 129.996 96.4845 129.77 97.2526C129.316 98.7951 127.109 99.326 125.903 99.6C122.999 100.26 120.801 99.7212 118.505 99.3338C110.699 98.0162 106.313 99.2162 105.726 97.4047C105.614 97.0619 105.795 97.091 106.397 94.575C106.991 92.0918 106.972 91.4098 107.477 91.211C108.239 90.9116 108.75 92.2732 110.669 92.7392C112.369 93.1521 113.772 92.5212 114.198 92.3296Z" fill="#2F2E41"/>
<path d="M101.043 120.232L98.7854 107.625L92.2666 109.018L92.8506 120.032L97.8907 124.372L101.043 120.232Z" fill="#FFB6B6"/>
<path d="M68.4546 77.3157C68.8627 77.6457 70.0502 78.8557 71.8543 79.0247C73.0855 79.14 74.043 78.718 74.3565 78.5899C78.2467 77.0012 88.7033 77.5082 95.5281 81.7412C97.0737 82.6998 97.9447 83.5467 98.5258 84.6274C99.3497 86.1597 99.2127 87.4592 99.3171 90.7927C99.3743 92.6161 99.5736 94.4329 99.6467 96.2558C100.075 106.928 101.684 108.837 99.9375 110.978C97.9991 113.352 93.6519 113.901 92.0302 112.394C91.3661 111.777 91.4288 111.066 91.1467 109.348C90.3194 104.312 88.7351 104.062 88.2582 100.311C87.7014 95.9313 89.5561 93.8747 88.3568 92.9313C87.2446 92.0564 85.4358 93.6568 81.1997 94.5368C79.2614 94.9394 78.0833 94.9277 74.4447 94.9652C60.275 95.111 59.8025 95.477 57.4966 94.6893C56.4877 94.3446 49.3269 91.8986 48.9638 87.7982C48.3955 81.3815 64.7774 74.3425 68.4546 77.3157Z" fill="#2F2E41"/>
<path d="M97.6219 120.408C98.3314 120.534 99.161 120.68 99.8112 120.161C100.251 119.81 100.543 119.207 100.514 118.634C100.48 117.972 100.031 117.582 100.103 117.518C100.213 117.421 101.337 118.252 102.301 119.563C102.483 119.811 103.299 120.945 103.947 122.961C104.467 124.577 104.201 124.649 104.556 125.618C105.647 128.594 108.459 128.745 108.638 130.962C108.708 131.817 108.364 132.732 107.747 133.241C106.507 134.262 104.383 133.46 103.232 133.008C100.459 131.921 98.9416 130.238 97.2594 128.627C91.5386 123.146 87.2365 121.672 87.7663 119.842C87.8666 119.496 87.9996 119.622 89.9081 117.879C91.7919 116.158 92.158 115.583 92.6882 115.703C93.4862 115.883 93.146 117.298 94.4723 118.762C95.6476 120.06 97.1622 120.327 97.6219 120.408Z" fill="#2F2E41"/>
<path d="M50.159 33.53C50.4968 32.3197 50.0725 31.8786 50.5049 31.3353C50.5049 31.3353 50.6789 31.1167 52.2347 30.5267C51.7757 27.8591 52.1194 27.408 52.1194 27.408C52.5155 26.8881 53.309 26.7624 53.8492 26.8304C54.9916 26.9743 55.1939 28.0087 55.9249 27.9855C56.9348 27.9535 58.146 25.9287 57.77 24.1737C57.4634 22.7422 56.1411 21.679 55.8096 21.8635C55.481 22.0464 54.2979 21.2399 53.8492 21.4015C53.5428 21.5118 52.1005 21.365 51.7734 21.517C51.4163 21.683 50.3935 22.7163 50.2957 22.5861C49.6162 21.6813 49.6307 21.3655 49.2364 21.1705C48.5378 20.8249 47.7783 21.4636 46.4687 22.0945C43.7742 23.3928 42.9852 22.6184 41.7407 23.7117C41.1119 24.264 40.7748 25.3195 40.1262 27.408C39.2191 30.3287 38.7656 31.7891 39.2036 33.1835C39.6504 34.6055 40.3083 34.296 41.2794 36.3022C42.3603 38.5355 41.9878 39.8336 43.0092 40.3451C43.7986 40.7403 45.0672 40.4888 45.5462 39.7675C46.3663 38.5326 44.2466 36.8622 44.9696 34.9161C45.4134 33.7215 46.7824 32.8157 47.6219 33.068C48.5712 33.3531 48.6411 35.058 49.2364 35.0316C49.7462 35.009 50.1001 33.7409 50.159 33.53Z" fill="#2F2E41"/>
<path d="M43.5858 41.8466C45.3614 39.8524 52.5938 41.9164 53.2727 45.0809C53.5519 46.3824 52.5211 46.932 52.8114 48.4306C53.2359 50.6226 55.6398 50.4732 57.4242 52.7045C59.9574 55.8723 57.3477 58.9689 60.1918 64.2555C60.7996 65.3851 61.3118 66.3372 62.3829 67.2587C64.8407 69.3732 67.128 68.648 68.3795 70.6085C69.3154 72.0745 68.9308 73.8815 68.8408 74.3048C68.4714 76.0405 67.4704 76.4634 66.765 77.8856C65.5914 80.2518 66.9202 81.989 66.9956 84.8162C67.09 88.3534 65.2134 93.2567 61.4603 94.8655C57.2439 96.6729 52.1586 93.6794 49.6978 90.7072C48.2294 88.9336 47.8031 87.2975 47.1607 85.2782C44.2897 76.2533 42.6678 77.0695 40.4722 69.9154C37.9623 61.737 37.4689 52.1556 40.4722 49.1237C40.8703 48.7218 41.9658 47.793 42.6633 46.1204C43.6018 43.8698 42.791 42.7393 43.5858 41.8466Z" fill="#6C63FF"/>
<path d="M69.822 88.2677C71.1986 90.0197 71.412 92.1513 70.2987 93.0287C69.1854 93.906 67.1674 93.1969 65.7905 91.4441C65.2309 90.7515 64.845 89.9347 64.6652 89.0621L58.9259 81.5651L61.8915 79.2993L67.7746 86.6115C68.5793 86.9919 69.2814 87.5598 69.822 88.2677Z" fill="#FFB6B6"/>
<path d="M48.8028 49.4466C49.0581 49.3895 51.2926 48.9255 53.0494 50.2873C55.0673 51.8517 54.9696 54.674 54.9353 55.6638C54.8561 57.9505 53.9615 58.3235 53.4293 60.5665C52.4336 64.7629 54.3298 68.6627 55.3775 70.8173C55.7401 71.5631 56.9051 73.8452 59.2242 76.3029C63.7345 81.0828 67.7589 83.5979 67.7589 83.5979L63.4356 87.4472C63.4356 87.4472 56.549 85.3447 51.8828 81.1324C47.0962 76.8115 39.7353 61.5237 38.2094 57.7997C38.078 57.479 39.9394 62.6929 43.4936 55.0549C44.3043 53.3127 45.7896 50.1206 48.8028 49.4466Z" fill="#6C63FF"/>
<path d="M108.081 166.644C105.333 167.066 103.322 168.828 103.591 170.58C103.859 172.331 106.304 173.409 109.053 172.986C110.153 172.833 111.201 172.417 112.108 171.775L123.729 169.84L122.953 165.239L111.359 166.883C110.301 166.542 109.177 166.46 108.081 166.644Z" fill="#FFB6B6"/>
<path d="M158.157 152.302L153.651 161.879L130.999 169.517L112.202 170.522L111.731 166L132.102 161.733L153.006 151.839L158.157 152.302Z" fill="#E0DAC4"/>
<path d="M116.378 188.667L112.332 198.917L107.097 195.341L110.191 184.615L116.378 188.667Z" fill="#FFB6B6"/>
<path d="M99.4823 184.854L88.7738 195.103L93.0572 199.632L104.004 191.051L99.4823 184.854Z" fill="#FFB6B6"/>
<path d="M160.164 151.483L160.045 150.649L157.308 145.286L148.265 147.67L149.931 155.059L160.164 151.483Z" fill="#FFB6B6"/>
<path d="M156.356 187.237L156.634 190.817C156.634 190.817 157.784 205.829 148.503 207.021C139.223 208.213 135.177 209.404 129.704 200.109L121.137 184.854L116.133 190.817L109.477 185.569C109.477 185.569 114.236 166.977 118.044 166.262C118.519 166.172 118.995 166.128 119.464 166.118C122.616 166.052 125.587 167.596 127.473 170.127L138.271 184.615L142.197 182.828L156.356 187.237Z" fill="#2F2E41"/>
<path d="M104.956 198.44L107.097 194.388L113.284 198.678C113.284 198.678 114.712 203.922 112.57 204.637C110.429 205.352 104.48 204.399 104.48 204.399C104.48 204.399 93.5332 206.782 93.2952 204.637C93.0573 202.492 98.2925 202.015 98.2925 202.015L104.956 198.44Z" fill="#2F2E41"/>
<path d="M128.276 195.58L111.738 185.141L103.29 192.719L97.5786 186.045C97.5786 186.045 108.049 170.552 111.143 169.837C114.236 169.122 119.234 168.645 119.234 168.645L134.463 182.708L128.276 195.58Z" fill="#2F2E41"/>
<path d="M88.5359 194.149L94.0091 200.108L93.2873 200.727C93.2873 200.727 91.8674 206.921 88.5359 204.826C85.2043 202.73 84.9664 202.254 84.9664 202.254C84.9664 202.254 75.4477 204.399 74.4959 200.585C73.544 196.771 76.1616 197.486 76.1616 197.486L78.5385 198.917L88.5359 194.149Z" fill="#2F2E41"/>
<path d="M151.121 150.292C155.326 150.292 158.736 146.877 158.736 142.664C158.736 138.452 155.326 135.037 151.121 135.037C146.915 135.037 143.506 138.452 143.506 142.664C143.506 146.877 146.915 150.292 151.121 150.292Z" fill="#FFB6B6"/>
<path d="M149.336 153.509L160.283 150.172C160.283 150.172 164.566 160.183 163.852 164.712C163.138 169.241 156.634 190.817 156.634 190.817L142.197 182.827C142.197 182.827 141.959 178.06 141.245 175.915C140.531 173.77 138.271 167.215 143.268 161.733C148.265 156.25 149.336 153.509 149.336 153.509Z" fill="#E0DAC4"/>
<path d="M125.244 203.56C123.462 205.698 123.119 208.352 124.478 209.487C125.836 210.623 128.381 209.81 130.163 207.671C130.887 206.826 131.398 205.821 131.653 204.738L139.087 195.584L135.466 192.649L127.859 201.566C126.841 202.012 125.944 202.696 125.244 203.56Z" fill="#FFB6B6"/>
<path d="M157.732 158.318L160.32 168.584L147.656 188.888L134.729 201.902L130.539 198.42L143.577 182.171L153.459 161.235L157.732 158.318Z" fill="#E0DAC4"/>
<path d="M144.101 141.353C146.054 141.348 146.165 141.361 146.48 141.353C148.903 141.289 149.536 140.334 150.764 140.4C152.955 140.516 150.063 151.52 148.86 156.608C147.68 161.598 151.667 166.069 151.954 166.381C156 170.789 163.108 171.595 164.328 169.718C165.315 168.198 161.816 165.888 162.662 162.567C163.489 159.321 167.306 159.666 168.373 156.608C169.491 153.405 165.735 151.79 163.376 143.975C162.021 139.487 162.261 138.651 160.996 135.871C157.617 128.44 141.051 131.604 142.911 138.493C143.271 139.825 142.313 141.357 144.101 141.353Z" fill="#2F2E41"/>
<path d="M168.417 50.8053H88.3858C86.1225 50.8053 84.2812 48.9609 84.2812 46.694V4.11131C84.2812 1.84446 86.1225 0 88.3858 0H168.417C170.68 0 172.522 1.84445 172.522 4.11131V46.694C172.522 48.9609 170.68 50.8053 168.417 50.8053Z" fill="white"/>
<path d="M168.417 50.8053H88.3858C86.1225 50.8053 84.2812 48.9609 84.2812 46.694V4.11131C84.2812 1.84446 86.1225 0 88.3858 0H168.417C170.68 0 172.522 1.84445 172.522 4.11131V46.694C172.522 48.9609 170.68 50.8053 168.417 50.8053ZM88.3858 0.686559C86.5005 0.686559 84.9667 2.22293 84.9667 4.11131V46.694C84.9667 48.5824 86.5005 50.1188 88.3858 50.1188H168.417C170.302 50.1188 171.836 48.5824 171.836 46.694V4.11131C171.836 2.22293 170.302 0.686559 168.417 0.686559H88.3858Z" fill="#3F3D56"/>
<path d="M162.24 5.14903C162.808 5.14903 163.268 4.68795 163.268 4.11919C163.268 3.55043 162.808 3.08936 162.24 3.08936C161.672 3.08936 161.212 3.55043 161.212 4.11919C161.212 4.68795 161.672 5.14903 162.24 5.14903Z" fill="#3F3D56"/>
<path d="M164.982 5.14903C165.55 5.14903 166.01 4.68795 166.01 4.11919C166.01 3.55043 165.55 3.08936 164.982 3.08936C164.414 3.08936 163.954 3.55043 163.954 4.11919C163.954 4.68795 164.414 5.14903 164.982 5.14903Z" fill="#3F3D56"/>
<path d="M167.724 5.14903C168.292 5.14903 168.752 4.68795 168.752 4.11919C168.752 3.55043 168.292 3.08936 167.724 3.08936C167.156 3.08936 166.696 3.55043 166.696 4.11919C166.696 4.68795 167.156 5.14903 167.724 5.14903Z" fill="#3F3D56"/>
<path d="M90.1073 20.7686C89.8239 20.7686 89.5933 20.9995 89.5933 21.2835C89.5933 21.4219 89.6466 21.55 89.7435 21.6445C89.8413 21.7448 89.9693 21.7984 90.1073 21.7984H167.038C167.322 21.7984 167.552 21.5674 167.552 21.2835C167.552 21.145 167.499 21.017 167.402 20.9224C167.304 20.8222 167.176 20.7686 167.038 20.7686H90.1073Z" fill="#E6E6E6"/>
<path d="M157.442 20.5967V21.9698H90.1074C89.9189 21.9698 89.7476 21.8943 89.6242 21.7673C89.4974 21.6437 89.422 21.472 89.422 21.2832C89.422 20.9056 89.7304 20.5967 90.1074 20.5967H157.442Z" fill="#839BB1"/>
<path d="M166.182 18.0221H159.327C158.571 18.0221 157.956 17.4063 157.956 16.649C157.956 15.8917 158.571 15.2759 159.327 15.2759H166.182C166.937 15.2759 167.552 15.8917 167.552 16.649C167.552 17.4063 166.937 18.0221 166.182 18.0221Z" fill="#E6E6E6"/>
<path d="M121.286 10.8131H90.6215C89.8656 10.8131 89.2506 10.1973 89.2506 9.44001C89.2506 8.68272 89.8656 8.06689 90.6215 8.06689H121.286C122.042 8.06689 122.657 8.68272 122.657 9.44001C122.657 10.1973 122.042 10.8131 121.286 10.8131Z" fill="#E6E6E6"/>
<path d="M90.1073 36.2158C89.8239 36.2158 89.5933 36.4468 89.5933 36.7307C89.5933 36.8692 89.6466 36.9972 89.7435 37.0918C89.8413 37.192 89.9693 37.2457 90.1073 37.2457H167.038C167.322 37.2457 167.552 37.0147 167.552 36.7307C167.552 36.5923 167.499 36.4642 167.402 36.3697C167.304 36.2695 167.176 36.2158 167.038 36.2158H90.1073Z" fill="#E6E6E6"/>
<path d="M131.053 36.0444V37.4175H90.1074C89.9189 37.4175 89.7476 37.342 89.6242 37.215C89.4974 37.0914 89.422 36.9198 89.422 36.731C89.422 36.3534 89.7304 36.0444 90.1074 36.0444H131.053Z" fill="#839BB1"/>
<path d="M166.182 33.4699H159.327C158.571 33.4699 157.956 32.854 157.956 32.0967C157.956 31.3395 158.571 30.7236 159.327 30.7236H166.182C166.937 30.7236 167.552 31.3395 167.552 32.0967C167.552 32.854 166.937 33.4699 166.182 33.4699Z" fill="#E6E6E6"/>
</g>
<defs>
<clipPath id="clip0_152_1796">
<rect width="207" height="210" fill="white"/>
</clipPath>
</defs>
</svg>
