<svg width="265" height="257" viewBox="0 0 265 257" fill="none" xmlns="http://www.w3.org/2000/svg">
<g clip-path="url(#clip0_137_1378)">
<path d="M51.2368 52.6445C64.9174 52.6445 76.0078 40.8596 76.0078 26.3222C76.0078 11.7849 64.9174 0 51.2368 0C37.5562 0 26.4658 11.7849 26.4658 26.3222C26.4658 40.8596 37.5562 52.6445 51.2368 52.6445Z" fill="#505285"/>
<path d="M128.38 54.6098C127.562 53.145 124.026 54.7134 123.376 53.3841C122.728 52.0595 126.014 50.0413 127.891 45.4309C128.23 44.5995 130.363 39.3601 128.784 37.7434C125.79 34.679 112.091 47.3251 107.297 43.1867C106.245 42.2785 105.51 40.4654 102.326 37.5218C101.059 36.3507 100.293 35.822 99.552 36.0187C98.5001 36.2978 98.4168 37.7938 97.2888 40.7352C95.5973 45.1463 94.5968 44.88 93.6113 48.3994C92.8796 51.012 93.0468 52.5309 92.1858 52.8268C90.9675 53.2456 89.8461 50.4744 88.3022 50.7226C86.7266 50.9758 85.7741 54.2023 85.4732 56.6181C84.9086 61.1515 86.4753 64.1429 87.3437 67.2884C88.2874 70.7067 88.8474 75.9053 86.6682 83.2646L65.0981 147.844C69.8601 134.593 83.6484 98.2666 89.4422 84.7676C91.1148 80.8707 92.9615 76.9181 96.7535 75.3581C100.404 73.8562 105.418 74.7529 111.81 73.1166C112.557 72.9255 114.628 72.3654 114.889 71.0706C115.105 70.0002 113.886 69.4027 114.073 68.4001C114.324 67.0554 116.721 67.0389 119.665 65.4874C121.742 64.3933 123.035 63.0923 124.148 61.9734C124.483 61.6361 129.468 56.5597 128.38 54.6098Z" fill="#839BB1"/>
<path d="M43.5171 88.6072C42.6047 88.6109 42.3087 90.9079 41.5071 90.8634C40.7083 90.8191 40.7243 88.5231 39.1365 86.2137C38.8502 85.7973 37.0457 83.1729 35.8433 83.5301C33.5642 84.2072 35.4526 95.0005 32.158 96.3067C31.4349 96.5934 30.3854 96.4536 28.1071 97.265C27.2007 97.5878 26.7355 97.8347 26.6124 98.2781C26.4379 98.9072 27.1047 99.3823 28.1379 100.819C29.6872 102.974 29.2755 103.419 30.6167 104.949C31.6123 106.084 32.3621 106.435 32.2503 106.97C32.0923 107.726 30.4888 107.511 30.1579 108.388C29.8203 109.283 31.0357 110.71 32.0647 111.564C33.9956 113.167 35.8294 113.213 37.5328 113.667C39.3839 114.162 41.9466 115.369 44.717 118.629L68.3214 148.512C63.5748 142.205 50.7748 124.533 46.2116 117.616C44.8943 115.62 43.6015 113.516 43.9751 111.088C44.3347 108.751 46.1956 106.395 47.2841 102.589C47.4112 102.144 47.7502 100.902 47.2275 100.393C46.7952 99.9714 46.1677 100.435 45.7587 100.048C45.21 99.5286 45.8937 98.2741 46.0267 96.2907C46.1205 94.8921 45.8928 93.8421 45.697 92.9391C45.638 92.6668 44.7317 88.6022 43.5171 88.6072Z" fill="#839BB1"/>
<path d="M61.7199 92.9491L61.1702 87.7345L61.4213 87.3392C62.5836 85.5112 63.176 83.726 63.1831 82.0314C63.1842 81.762 63.1724 81.4926 63.1605 81.2182C63.1131 80.1304 63.0539 78.7783 63.7174 77.2021C64.0894 76.3234 65.1344 74.2889 66.7054 74.5407C67.1283 74.6036 67.4482 74.8101 67.6911 75.0518C67.7266 74.9914 67.7634 74.9309 67.8025 74.8655C68.2918 74.0723 68.6792 73.7324 69.0524 73.4051C69.3391 73.1533 69.6353 72.894 70.0997 72.2796C70.3035 72.0102 70.4622 71.7735 70.5961 71.5746C71.0025 70.9728 71.5333 70.2552 72.4692 70.2677C73.4692 70.3181 73.9928 71.1968 74.3399 71.7785C74.9596 72.8159 75.2404 73.5637 75.4264 74.0597C75.4939 74.241 75.5709 74.4449 75.61 74.5079C75.9323 75.0115 78.5518 74.5406 79.5387 74.3694C81.7554 73.9766 83.6735 73.6367 84.4638 75.1223C85.0301 76.1848 84.6095 77.5898 83.1759 79.4103C82.7292 79.9768 82.2542 80.4074 81.8324 80.7448C82.1819 80.9664 82.4946 81.3063 82.6214 81.8401C82.92 83.1041 81.8976 84.3706 79.5837 85.6094C79.0091 85.9191 78.2354 86.3321 77.1514 86.531C76.6408 86.6241 76.1811 86.6468 75.7877 86.6594C75.7794 86.9011 75.7261 87.163 75.5875 87.4324C75.1811 88.2255 74.3352 88.6032 73.0604 88.5126C71.6577 88.4345 70.5025 88.15 69.4836 87.9007C68.5939 87.6842 67.8273 87.5004 67.2255 87.5432C66.1094 87.6388 65.2493 88.5881 64.2399 89.8194L61.7199 92.9491Z" fill="#839BB1"/>
<path d="M64.2699 61.9014L59.6625 63.7891L59.239 63.6312C57.2802 62.9002 55.5049 62.7441 53.9605 63.1667C53.715 63.2338 53.4727 63.3143 53.2259 63.3961C52.2478 63.7207 51.032 64.1246 49.4289 63.8424C48.5346 63.683 46.4176 63.1249 46.2483 61.4462C46.1984 60.9955 46.3051 60.6144 46.4636 60.3034C46.3996 60.2822 46.3352 60.2598 46.2657 60.2362C45.4196 59.9344 45.0119 59.6225 44.6193 59.3219C44.3174 59.091 44.0062 58.8524 43.3291 58.5308C43.0322 58.3897 42.7765 58.2866 42.5614 58.1994C41.9106 57.9344 41.1227 57.5708 40.8968 56.6055C40.689 55.565 41.3561 54.8038 41.7975 54.2994C42.5846 53.3994 43.1941 52.9211 43.5985 52.6041C43.7464 52.4887 43.9125 52.3578 43.9599 52.3017C44.3365 51.8427 43.2435 49.2696 42.8373 48.2986C41.9175 46.1198 41.1215 44.2344 42.2734 43.0453C43.097 42.1937 44.4826 42.2697 46.5034 43.2814C47.1324 43.5968 47.6449 43.976 48.059 44.3239C48.172 43.9085 48.4021 43.5008 48.8559 43.2351C49.9308 42.6076 51.343 43.3373 53.0576 45.4014C53.4852 45.9134 54.0574 46.6039 54.5134 47.6677C54.7277 48.1689 54.865 48.6357 54.9762 49.0368C55.1984 48.984 55.4502 48.9724 55.7307 49.0465C56.5557 49.2631 57.1141 50.0367 57.3549 51.3701C57.6397 52.8318 57.6737 54.0912 57.7052 55.2018C57.7338 56.1713 57.7609 57.0058 57.9525 57.6136C58.3227 58.7364 59.405 59.3798 60.7818 60.105L64.2699 61.9014Z" fill="#839BB1"/>
<path d="M61.7199 46.539L61.1702 41.3244L61.4213 40.929C62.5836 39.101 63.176 37.3158 63.1831 35.6213C63.1842 35.3519 63.1724 35.0824 63.1605 34.808C63.1131 33.7203 63.0539 32.3681 63.7174 30.7919C64.0894 29.9132 65.1344 27.8787 66.7054 28.1305C67.1283 28.1935 67.4482 28.3999 67.6911 28.6416C67.7266 28.5812 67.7634 28.5208 67.8025 28.4553C68.2918 27.6621 68.6792 27.3223 69.0524 26.9949C69.3391 26.7431 69.6353 26.4838 70.0997 25.8694C70.3035 25.6 70.4622 25.3633 70.5961 25.1644C71.0025 24.5626 71.5333 23.845 72.4692 23.8576C73.4692 23.9079 73.9928 24.7867 74.3399 25.3683C74.9596 26.4057 75.2404 27.1535 75.4264 27.6496C75.4939 27.8309 75.5709 28.0348 75.61 28.0977C75.9323 28.6013 78.5518 28.1305 79.5387 27.9592C81.7554 27.5664 83.6735 27.2265 84.4638 28.7121C85.0301 29.7747 84.6095 31.1797 83.1759 33.0001C82.7292 33.5667 82.2542 33.9972 81.8324 34.3346C82.1819 34.5562 82.4946 34.8961 82.6214 35.4299C82.92 36.6939 81.8976 37.9604 79.5837 39.1993C79.0091 39.5089 78.2354 39.9219 77.1514 40.1208C76.6408 40.214 76.1811 40.2367 75.7877 40.2493C75.7794 40.491 75.7261 40.7528 75.5875 41.0222C75.1811 41.8154 74.3352 42.1931 73.0604 42.1024C71.6577 42.0243 70.5025 41.7398 69.4836 41.4906C68.5939 41.274 67.8273 41.0902 67.2255 41.133C66.1094 41.2287 65.2493 42.178 64.2399 43.4092L61.7199 46.539Z" fill="#839BB1"/>
<path d="M66.741 147.759L65.7126 147.074L64.5136 147.22C64.4947 147.102 64.4295 146.83 64.3312 146.405C63.7945 144.073 62.1583 136.977 60.7935 125.803C59.8409 118.002 59.3019 109.983 59.1905 101.963C59.0791 93.9313 59.4369 87.8505 59.7236 82.9632C59.9404 79.277 60.2035 75.767 60.4617 72.3477C61.1489 63.2127 61.797 54.5838 61.3148 45.0309C61.2081 42.8982 60.9842 38.4591 58.5436 33.7355C57.1278 30.996 55.1777 28.5637 52.7466 26.5091L54.2583 24.4897C56.9418 26.7609 59.0992 29.4551 60.6715 32.4967C63.3774 37.734 63.6215 42.5709 63.7388 44.8949C64.2293 54.6166 63.5741 63.3286 62.8798 72.5517C62.6239 75.9584 62.3609 79.4533 62.1453 83.1244C61.8609 87.9664 61.5067 93.9942 61.6169 101.923C61.7259 109.847 62.259 117.768 63.1986 125.471C64.5468 136.504 66.1593 143.494 66.6889 145.79C66.9708 147.016 67.0301 147.273 66.741 147.759Z" fill="#839BB1"/>
<path d="M48.2967 30.6057C48.1972 30.6057 48.0965 30.6032 47.9946 30.5956C45.9284 30.4773 44.015 29.1629 42.3066 26.6903C41.5057 25.5271 41.0958 24.2001 40.2783 21.5538C40.1515 21.1459 39.5354 19.0762 39.161 16.2284C38.9158 14.3677 38.9466 13.5896 39.2937 12.9022C39.6788 12.1368 40.302 11.603 41.0033 11.243C40.9725 10.9962 40.9974 10.7419 41.0981 10.4825C41.5116 9.40738 42.611 9.5484 43.2058 9.61638C43.5067 9.65666 43.8823 9.70954 44.2875 9.68687C44.9249 9.65415 45.2673 9.45269 45.7862 9.15054C46.2826 8.86097 46.8999 8.50092 47.8157 8.302C49.6213 7.90166 51.1342 8.44553 51.633 8.62428C54.2572 9.55339 55.551 11.7213 57.0485 14.2317C57.3471 14.7352 58.3719 16.5683 59.0484 19.0812C59.5365 20.8941 59.4678 21.6998 59.3209 22.2991C59.0223 23.5303 58.3174 24.2353 56.5272 25.7914C54.6577 27.4205 53.7194 28.2363 52.9137 28.7323C51.0382 29.883 49.8606 30.6057 48.2967 30.6057Z" fill="#839BB1"/>
<path d="M79.1488 57.7806L79.1248 58.2005L78.3613 71.6059L96.157 73.593L91.1823 56.2251L79.1488 57.7806Z" fill="#A0616A"/>
<path d="M133.101 56.854C133.118 56.8571 133.144 56.8618 133.176 56.8673C133.794 56.976 137.527 57.5881 141.292 56.0643C142.886 55.4188 142.342 55.2579 145.894 53.0137C150.058 50.3825 151.127 50.4009 151.437 49.174C152.056 46.7242 148.75 42.873 146.562 43.1266C145.985 43.1933 145.368 43.5583 144.409 43.3108C144.198 43.2565 143.275 43.0184 142.825 42.2066C142.423 41.4823 142.763 40.9599 142.602 40.3659C142.178 38.8068 138.646 38.0287 135.549 38.5785C133.768 38.8947 132.383 39.7579 129.685 41.4715C124.989 44.454 122.641 45.9453 122.113 48.2301C121.613 50.3957 122.814 51.3288 121.94 53.647C121.128 55.8055 119.836 55.6613 119.392 57.4074C118.677 60.2173 121.331 63.3011 122.436 64.5858C123.648 65.9942 124.807 66.7672 126.346 67.7934C128.278 69.0815 129.244 69.7255 130.405 69.66C132.51 69.5412 138.766 69.9456 138.847 68.0944C138.878 67.4007 146.465 67.9687 142.729 60.4995C142.271 59.5834 133.294 60.562 133.175 60.0357" fill="#2F2E41"/>
<path d="M125.71 60.3272L125.686 60.7472L124.922 74.1525L142.718 76.1396L137.743 58.7717L125.71 60.3272Z" fill="#FFB6B6"/>
<path d="M265 148.195C265 148.364 264.871 148.501 264.712 148.501H0V147.89H264.712C264.871 147.89 265 148.026 265 148.195Z" fill="#E6E6E6"/>
<path d="M176.717 128.832C179.571 132.098 183.472 133.181 185.428 131.25C187.384 129.319 186.655 125.107 183.799 121.839C182.675 120.517 181.269 119.501 179.7 118.875L167.44 105.196L161.522 111.446L174.236 124.267C174.708 125.978 175.559 127.543 176.717 128.832Z" fill="#FFB6B6"/>
<path d="M150.996 119.455C154.966 120.896 158.883 119.886 159.745 117.201C160.608 114.516 158.088 111.173 154.116 109.733C152.537 109.134 150.846 108.946 149.185 109.185L132.29 103.308L129.864 111.791L146.776 116.684C147.954 117.953 149.401 118.903 150.996 119.455Z" fill="#A0616A"/>
<path d="M94.935 68.0593C94.935 68.0593 84.4624 81.4474 90.521 86.9866C96.5796 92.5259 123.635 113.032 123.635 113.032L134.183 114.777L136.881 103.943L113.064 85.1891L94.935 68.0593Z" fill="#6C63FF"/>
<path d="M134.809 65.0788C141.359 65.0788 146.669 59.4363 146.669 52.4759C146.669 45.5156 141.359 39.873 134.809 39.873C128.259 39.873 122.949 45.5156 122.949 52.4759C122.949 59.4363 128.259 65.0788 134.809 65.0788Z" fill="#FFB6B6"/>
<path d="M130.989 53.2915C131.006 53.2946 131.032 53.2993 131.064 53.3048C131.681 53.4135 135.415 54.0256 139.179 52.5018C140.774 51.8563 140.23 51.6954 143.782 49.4512C147.946 46.82 149.015 46.8384 149.325 45.6115C149.944 43.1617 146.638 39.3105 144.449 39.5641C143.873 39.6308 143.256 39.9958 142.296 39.7483C142.086 39.694 141.163 39.4559 140.713 38.6441C140.311 37.9198 140.651 37.3974 140.49 36.8034C140.066 35.2443 136.534 34.4662 133.437 35.016C131.656 35.3322 130.271 36.1954 127.573 37.909C122.877 40.8915 120.529 42.3828 120.001 44.6676C119.501 46.8332 120.701 47.7663 119.828 50.0845C119.015 52.243 117.724 52.0988 117.28 53.8449C116.565 56.6548 119.218 59.7386 120.324 61.0233C121.536 62.4317 122.695 63.2047 124.234 64.2309C126.166 65.519 127.131 66.163 128.292 66.0975C130.398 65.9787 132.492 63.9514 132.573 62.1002C132.604 61.4065 132.331 61.1984 131.657 58.8134C131.376 57.8198 131.182 56.9995 131.063 56.4732" fill="#2F2E41"/>
<path d="M206.562 166.561L218.886 182.932L225.391 172.746L215.805 163.287L206.562 166.561Z" fill="#FFB6B6"/>
<path d="M155.892 126.907C155.892 126.907 193.784 131.637 196.92 134.911C200.057 138.185 218.886 165.834 218.886 165.834L211.012 172.382L190.709 149.446L147.429 149.087L155.892 126.907Z" fill="#2F2E41"/>
<path d="M176.434 126.907L188.759 143.278L195.264 133.092L185.678 123.633L176.434 126.907Z" fill="#FFB6B6"/>
<path d="M187.047 138.549C187.047 138.549 184.308 137.821 184.308 140.368C184.308 142.914 184.993 150.554 184.993 150.554C184.993 150.554 216.49 144.733 216.49 141.095C216.49 137.457 207.931 138.185 207.931 138.185L195.606 132L187.047 138.549Z" fill="#2F2E41"/>
<path d="M122.683 210.581L128.503 233.5L137.747 231.681L135.693 208.034L122.683 210.581Z" fill="#A0616A"/>
<path d="M129.873 232.045L126.449 232.773L123.71 242.595C123.71 242.595 128.161 244.414 128.161 248.052C128.161 251.69 129.873 254.237 136.72 253.873C143.567 253.509 144.252 253.873 144.252 250.963C144.252 248.052 139.117 232.773 139.117 232.773C139.117 232.773 139.459 226.588 135.351 226.952C131.242 227.316 129.873 232.045 129.873 232.045Z" fill="#2F2E41"/>
<path d="M91.3862 210.225L91.7834 233.96L101.166 234.586L104.588 211.118L91.3862 210.225Z" fill="#A0616A"/>
<path d="M93.445 232.903L89.9577 232.723L85.052 241.542C85.052 241.542 88.9524 244.457 88.1194 247.986C87.2864 251.515 88.3636 254.427 95.0883 255.845C101.813 257.262 102.394 257.792 103.06 254.969C103.727 252.146 102.244 235.998 102.244 235.998C102.244 235.998 103.993 230.088 99.9244 229.379C95.8563 228.669 93.445 232.903 93.445 232.903Z" fill="#2F2E41"/>
<path d="M95.2947 68.3353L76.8072 66.8801L72.6989 72.3371C72.6989 72.3371 70.6448 109.081 72.0142 112.719C73.3836 116.357 72.3566 137.093 72.3566 137.093L118.962 133.637L108.647 107.262L108.989 91.9823L99.7453 73.4285L95.2947 68.3353Z" fill="#6C63FF"/>
<path d="M74.4107 129.454C74.4107 129.454 66.8788 141.095 69.6177 147.28C72.3566 153.464 90.9346 189.374 90.9346 189.374L88.5381 222.844L104.971 221.389L107.71 185.372L96.3218 156.011L98.3759 152.737L115.494 174.929L121.656 213.491L138.09 211.309L129.188 154.92L118.785 133.186L74.4107 129.454Z" fill="#2F2E41"/>
<path d="M139.459 67.244L125.765 65.7888L114.467 77.4304C114.467 77.4304 108.989 94.1652 110.016 103.26C111.043 112.355 119.945 134.911 119.945 134.911L133.981 123.997L150.072 124.724V90.6661L141.856 71.6096L139.459 67.244Z" fill="#E0DAC4"/>
<path d="M136.802 71.6057C136.802 71.6057 144.676 72.6917 148.083 78.9186C151.49 85.1455 176.05 114.445 176.05 114.445L171.397 118.969L147.198 102.378L137.906 85.3961L136.802 71.6057Z" fill="#E0DAC4"/>
<path d="M118.746 131.091C118.746 131.091 117.548 146.188 125.08 148.371C132.612 150.554 152.126 148.735 152.126 148.735L164.451 114.902L176.434 130.181L188.074 124.36C188.074 124.36 175.749 87.6167 168.902 87.6167C162.055 87.6167 151.099 97.8031 151.099 97.8031L133.297 123.269L118.746 131.091Z" fill="#2F2E41"/>
<path d="M217.175 178.203C217.175 178.203 214.436 177.475 214.436 180.022C214.436 182.569 215.121 190.208 215.121 190.208C215.121 190.208 246.618 184.388 246.618 180.75C246.618 177.112 238.059 177.839 238.059 177.839L225.734 171.655L217.175 178.203Z" fill="#2F2E41"/>
<path d="M72.8016 46.0563C76.307 46.0563 79.1488 43.0366 79.1488 39.3116C79.1488 35.5866 76.307 32.5669 72.8016 32.5669C69.2961 32.5669 66.4543 35.5866 66.4543 39.3116C66.4543 43.0366 69.2961 46.0563 72.8016 46.0563Z" fill="#2F2E41"/>
<path d="M87.4597 64.3159C95.0938 64.3159 101.282 57.7397 101.282 49.6276C101.282 41.5154 95.0938 34.9392 87.4597 34.9392C79.8256 34.9392 73.637 41.5154 73.637 49.6276C73.637 57.7397 79.8256 64.3159 87.4597 64.3159Z" fill="#A0616A"/>
<path d="M83.0771 65.7306C81.6079 66.5576 77.4741 63.5215 75.995 59.4532C75.0435 56.836 72.7301 57.2714 71.2539 54.0074C70.3937 52.1056 72.9623 50.2451 72.5387 48.6007C71.771 45.6213 72.7334 42.9556 72.856 42.629C73.9145 39.8101 75.4747 39.8756 76.7328 36.5945C77.4903 34.6191 77.0043 34.3877 77.641 33.3771C79.4785 30.4606 84.81 30.3496 88.5703 31.7289C89.8715 32.2062 93.0058 29.6487 95.5501 31.5014C98.5478 33.6843 100.542 39.9764 100.083 41.1294C99.8045 41.8299 98.2525 41.1162 95.0248 41.6553C92.0364 42.1544 95.9805 44.5269 92.6175 45.3357C88.6406 46.292 87.4426 45.4193 86.3405 46.7562C85.1755 48.1694 84.9601 51.0299 86.0232 52.7279C86.5507 53.5704 87.2309 53.8678 87.1457 54.4542C86.9901 55.5248 86.0952 54.9428 85.8017 56.0786C85.4603 57.3996 88.293 59.1317 88.0468 59.5312C87.9971 59.6117 87.785 59.6989 85.019 58.5661C83.9146 58.1138 83.4887 57.7233 83.3648 57.8678C83.1643 58.1017 82.1712 60.4473 83.2996 61.445C85.0556 62.9977 83.8385 63.6143 84.639 64.8301C85.4649 66.0843 84.0107 65.2051 83.0771 65.7306Z" fill="#2F2E41"/>
<path d="M86.3134 150.598C88.5194 154.39 92.1487 156.254 94.4194 154.761C96.6901 153.269 96.7421 148.986 94.5348 145.193C93.6727 143.666 92.4787 142.379 91.0528 141.442L81.515 125.501L74.5708 130.417L84.7106 145.61C84.8624 147.385 85.412 149.095 86.3134 150.598Z" fill="#A0616A"/>
<path d="M73.726 73.0647C73.726 73.0647 57.6351 76.3389 59.0046 84.7063C60.374 93.0737 69.0181 127.172 69.0181 127.172L76.1226 135.638L84.6815 129.09L77.492 98.5307L73.726 73.0647Z" fill="#6C63FF"/>
<path d="M150.568 151.952C152.765 155.749 156.389 157.623 158.664 156.137C160.938 154.651 161 150.368 158.802 146.57C157.944 145.039 156.753 143.75 155.329 142.809L145.83 126.842L138.874 131.739L148.977 146.959C149.124 148.734 149.67 150.446 150.568 151.952Z" fill="#FFB6B6"/>
<path d="M129.192 75.2483L115.642 78.859C115.642 78.859 120.386 96.8251 121.498 103.266C122.61 109.706 146.009 145.193 146.009 145.193L153.087 136.196L132.362 95.6089L129.192 75.2483Z" fill="#E0DAC4"/>
</g>
<defs>
<clipPath id="clip0_137_1378">
<rect width="265" height="257" fill="white"/>
</clipPath>
</defs>
</svg>
