<svg width="265" height="257" viewBox="0 0 265 257" fill="none" xmlns="http://www.w3.org/2000/svg">
<g clip-path="url(#clip0_137_1420)">
<path d="M197.503 149.537C198.311 149.603 198.758 148.293 198.146 147.529L198.086 147.214C198.094 147.189 198.102 147.163 198.11 147.138C198.927 144.596 201.697 144.613 202.507 147.159C203.226 149.419 204.141 151.683 204.367 154.072C204.468 155.127 204.423 156.202 204.243 157.237C205.928 152.434 206.815 147.19 206.815 141.916C206.815 140.591 206.759 139.266 206.646 137.944C206.552 136.863 206.423 135.788 206.257 134.724C205.355 128.969 203.402 123.487 200.585 118.909C199.231 117.943 198.102 116.433 197.419 114.624C197.174 113.971 196.982 113.269 196.891 112.554C197.046 112.58 197.473 109.518 197.356 109.33C197.571 108.905 197.955 108.693 198.19 108.278C199.357 106.215 200.964 106.575 201.803 109.379C203.595 110.56 203.612 112.517 202.513 114.399C201.813 115.597 201.717 117.218 201.103 118.5C201.166 118.605 201.232 118.708 201.295 118.813C202.453 120.751 203.455 122.835 204.299 125.023C204.061 122.591 204.413 119.66 205.014 117.771C205.697 115.619 206.979 113.807 208.108 111.946C209.464 109.711 212.244 110.686 212.482 113.519C212.485 113.547 212.487 113.574 212.489 113.602C212.322 113.725 212.157 113.856 211.997 113.995C211.082 114.784 211.398 116.635 212.482 116.853L212.507 116.858C212.446 117.646 212.343 118.427 212.191 119.195C213.639 126.501 210.513 129.162 206.05 129.282C205.951 129.348 205.855 129.414 205.756 129.476C206.209 131.138 206.57 132.842 206.838 134.569C207.078 136.095 207.244 137.638 207.338 139.187C207.454 141.141 207.444 143.106 207.318 145.057L207.325 144.988C207.646 142.839 208.54 140.832 209.839 139.441C211.773 137.367 214.506 136.604 216.593 134.937C217.598 134.135 218.885 135.172 218.71 136.691L218.701 136.764C218.391 136.929 218.088 137.12 217.794 137.334C217.627 137.458 217.463 137.589 217.302 137.727C216.387 138.517 216.703 140.368 217.788 140.586L217.812 140.591C217.83 140.594 217.845 140.598 217.863 140.601C217.33 142.252 216.587 143.785 215.657 145.107C214.752 151.485 210.863 152.09 206.704 150.232H206.701C206.247 152.817 205.582 155.342 204.728 157.748H197.68C197.654 157.646 197.632 157.54 197.609 157.438C198.261 157.491 198.918 157.441 199.559 157.286C199.036 156.449 198.513 155.605 197.99 154.768C197.978 154.751 197.968 154.735 197.958 154.719C197.692 154.29 197.425 153.865 197.159 153.436L197.159 153.436C197.143 152.12 197.264 150.809 197.503 149.537Z" fill="#F2F2F2"/>
<path d="M30.317 136.033C32.454 136.208 33.6351 132.744 32.0183 130.725L31.8575 129.89C31.8786 129.823 31.8999 129.757 31.9214 129.69C34.0825 122.966 41.4068 123.013 43.5495 129.746C45.4514 135.723 47.8728 141.709 48.469 148.028C48.7362 150.818 48.616 153.659 48.1416 156.397C52.5979 143.696 54.943 129.827 54.943 115.88C54.943 112.376 54.796 108.871 54.4953 105.376C54.2481 102.517 53.9074 99.675 53.4664 96.8594C51.0813 81.6394 45.9167 67.1431 38.4674 55.0351C34.8863 52.481 31.8998 48.4886 30.0959 43.703C29.4479 41.9769 28.9401 40.1202 28.6996 38.2287C29.1071 38.2984 30.2363 30.2002 29.9289 29.7034C30.4968 28.5789 31.5134 28.0199 32.1337 26.9227C35.2186 21.4657 39.4689 22.4185 41.6877 29.8342C46.4276 32.9554 46.4734 38.1318 43.5651 43.1102C41.7148 46.2775 41.4605 50.5632 39.837 53.9541C40.0041 54.2331 40.1778 54.5033 40.3448 54.7823C43.4077 59.908 46.0569 65.4174 48.2901 71.2053C47.6589 64.7727 48.5908 57.0232 50.1794 52.0277C51.9877 46.3359 55.3772 41.5423 58.362 36.6217C61.9473 30.7114 69.2992 33.2908 69.9308 40.7831C69.937 40.8556 69.9429 40.9281 69.9487 41.0006C69.5054 41.3269 69.0711 41.6736 68.6468 42.0397C66.2268 44.1279 67.0632 49.0225 69.9305 49.6L69.9955 49.613C69.8351 51.6964 69.5612 53.7623 69.1604 55.7934C72.9895 75.1143 64.7227 82.1514 52.9186 82.4675C52.658 82.6418 52.4041 82.8162 52.1436 82.9819C53.3395 87.3752 54.295 91.8819 55.0031 96.4496C55.6378 100.486 56.0788 104.565 56.3259 108.662C56.6333 113.831 56.6066 119.027 56.2725 124.187L56.2925 124.004C57.141 118.321 59.5061 113.012 62.9402 109.333C68.056 103.85 75.2837 101.831 80.8027 97.4239C83.4594 95.3024 86.8637 98.044 86.4001 102.063L86.3775 102.255C85.5557 102.691 84.754 103.197 83.979 103.763C83.5357 104.09 83.1013 104.436 82.6771 104.802C80.2571 106.891 81.0935 111.785 83.9608 112.363L84.0258 112.376C84.0726 112.384 84.1127 112.393 84.1594 112.402C82.7497 116.769 80.7855 120.822 78.3268 124.318C75.9325 141.184 65.6491 142.785 54.649 137.873H54.6423C53.4397 144.707 51.6826 151.384 49.4243 157.748H30.7841C30.7172 157.478 30.6571 157.199 30.597 156.928C32.3207 157.068 34.0578 156.937 35.7549 156.527C34.3718 154.313 32.9889 152.082 31.6059 149.868C31.5725 149.824 31.5457 149.78 31.519 149.737C30.8175 148.604 30.1093 147.479 29.4078 146.346L29.4074 146.345C29.3635 142.866 29.6831 139.399 30.3164 136.034L30.317 136.033Z" fill="#F2F2F2"/>
<path d="M256.125 13.7024H97.786V14.7231H203.324C210.823 14.7231 218 16.4888 224.634 19.7244H224.638C225.549 20.1684 226.445 20.6379 227.333 21.138C229.382 22.2812 231.369 23.5723 233.294 24.9962C234.491 25.879 235.664 26.8181 236.806 27.803C239.247 29.9005 241.563 32.2225 243.737 34.7487L243.741 34.7538C243.839 34.861 243.933 34.9681 244.027 35.0855C256.422 49.625 264.218 70.7121 264.218 94.1723V151.652C264.218 151.774 264.218 151.896 264.214 152.019C264.104 156.234 262.102 159.751 259.442 158.868C254.908 157.357 250.305 156.25 245.627 156.25H27.8455C18.7867 156.25 9.57911 157.378 1.1656 161.766C0.883989 161.914 0.621931 161.823 0.36376 161.715C0.242505 161.664 0.121251 161.613 0 161.552V162.629C0.883989 163.017 1.82663 163.231 2.81232 163.231H256.125C260.916 163.231 264.836 158.245 264.992 152.045C265 151.912 265 151.784 265 151.652V25.2819C265 18.8976 261.018 13.7024 256.125 13.7024Z" fill="#839BB1"/>
<path d="M102.147 245.006L96.2076 246.173L89.9316 216.84L98.697 215.118L102.147 245.006Z" fill="#FFB6B6"/>
<path d="M103.289 253.049L85.0258 256.637L84.991 256.336C84.3999 251.214 87.103 246.436 91.0287 245.664L91.0291 245.664L93.9838 241.707L100.589 243.786L102.184 243.472L103.289 253.049Z" fill="#2F2E41"/>
<path d="M151.518 238.754L146.134 242.226L133.308 216.782L141.255 211.658L151.518 238.754Z" fill="#FFB6B6"/>
<path d="M154.484 245.961L137.927 256.637L137.823 256.364C136.064 251.72 137.524 246.095 141.082 243.8L141.083 243.8L142.973 238.856L149.75 238.211L151.195 237.279L154.484 245.961Z" fill="#2F2E41"/>
<path d="M164.22 158.367L164.319 110.371L173.081 107.344L170.535 158.167C171.257 158.917 171.828 159.936 172.139 161.164C172.993 164.528 171.596 168.158 169.018 169.272C166.44 170.386 163.658 168.563 162.804 165.199C162.165 162.682 162.787 160.017 164.22 158.367Z" fill="#FFB6B6"/>
<path d="M108.306 145.722L109.915 97.7713L118.765 95.2173L114.622 145.861C115.319 146.648 115.857 147.697 116.13 148.941C116.878 152.348 115.367 155.9 112.756 156.875C110.145 157.85 107.423 155.879 106.675 152.472C106.116 149.923 106.822 147.293 108.306 145.722Z" fill="#FFB6B6"/>
<path d="M132.749 162.917L109.933 172.686L96.5677 178.406C102.176 191.226 101.682 230.673 101.246 233.948H89.572C89.4593 231.005 81.192 192.514 78.7453 175.079C75.5614 152.391 90.5012 146.64 90.5012 146.64L112.081 135.43L125.61 130.982L136.3 127.467C136.785 128.662 137.206 129.828 137.571 130.969C137.574 130.972 137.574 130.979 137.576 130.982C144.047 151.2 132.749 162.917 132.749 162.917Z" fill="#2F2E41"/>
<path d="M162.506 144.741C162.178 151.308 160.081 155.753 160.081 155.753L130.106 186.391C136.124 193.07 150.635 226.008 151.916 230.376L138.856 232.928C137.423 229.467 114.721 196.188 112.48 191.181C109.575 184.691 109.166 178.323 109.933 172.686C111.517 161.019 118.147 152.478 118.147 152.478L134.591 132.787L137.549 130.982L137.571 130.969L154.169 120.843C157.035 124.236 158.989 127.665 160.287 130.982C161.72 134.644 162.349 138.168 162.506 141.351C162.565 142.533 162.56 143.665 162.506 144.741Z" fill="#2F2E41"/>
<path d="M147.811 42.7868L131.402 42.1477L126.504 49.8168C121.793 50.5322 117.652 52.9148 114.258 57.4859C114.258 57.4859 116.954 66.8989 116.217 86.8842C115.833 97.3034 117.648 116.493 117.442 123.952C117.258 130.595 118.025 133.558 118.177 133.538C118.825 133.454 121.85 131.301 127.973 133.858C134.096 136.414 160.893 130.949 160.893 130.949L159.077 115.643L161.342 106.031L162.261 54.9296C157.118 52.0536 154.424 51.095 149.526 51.095L147.811 42.7868Z" fill="#E0DAC4"/>
<path d="M157.189 58.8818L162.016 54.9295C162.016 54.9295 170.833 53.0123 170.098 75.061C170.098 75.061 174.929 90.9449 174.636 104.796C174.618 105.655 173.959 106.926 174.52 107.344C175.71 108.232 175.145 109.073 174.262 109.892L163.19 113.114C162.202 111.901 161.7 110.767 162.496 109.845C161.599 109.421 161.372 108.836 162.108 108.017C161.697 107.916 161.509 107.593 161.839 106.752L156.383 91.6774L157.189 58.8818Z" fill="#E0DAC4"/>
<path d="M119.812 60.3439L114.594 57.3546C114.594 57.3546 105.657 57.1393 108.854 78.8111C108.854 78.8111 106.164 93.7257 107.443 106.896C107.471 107.187 107.678 107.544 107.534 107.768C107.047 108.524 106.988 109.271 107.827 110.001C108.118 110.254 108.219 110.938 108.049 111.331C107.499 112.595 107.887 113.419 108.637 114.062L121.684 119.963L125.14 84.3396L119.812 60.3439Z" fill="#E0DAC4"/>
<path d="M137.955 40.4962C145.619 40.4962 151.833 32.3895 151.833 22.3893C151.833 12.3892 145.619 4.28247 137.955 4.28247C130.29 4.28247 124.077 12.3892 124.077 22.3893C124.077 32.3895 130.29 40.4962 137.955 40.4962Z" fill="#FFB6B6"/>
<path d="M150.977 34.4808C150.809 34.8915 150.319 35.4457 149.657 36.0602C148.905 36.7584 147.935 37.5316 146.971 38.2703C146.971 38.2703 143.481 37.7773 144.854 35.3651C145.008 35.0975 145.152 34.7999 145.283 34.4871C145.763 33.3308 145.997 31.975 145.389 31.0101C144.939 30.2977 144.087 30.0866 143.468 30.5364C142.851 30.9814 143.079 30.9786 142.841 30.8932C142.262 30.0233 141.325 30.4273 141.325 30.4273C141.325 30.4273 142.052 28.2747 142.626 27.3591C143.205 26.4449 143.799 25.4359 143.858 24.2554C143.919 23.1231 143.478 22.0595 143.053 21.0755C142.593 20.0099 142.135 18.9506 141.674 17.885C141.518 17.5273 141.364 17.1647 141.194 16.8176C139.544 13.4083 134.187 16.8757 131.098 16.7282C128.01 16.5759 126.969 11.6701 125.132 14.911C124.687 12.3478 124.354 10.3539 123.913 8.15736C123.511 6.144 125.24 4.48953 126.557 5.66731C126.568 5.67631 126.574 5.68394 126.584 5.69294C126.769 5.39415 126.905 5.05671 126.995 4.69178C127.056 4.43865 127.153 4.20893 127.272 4.01329C127.713 4.42084 128.156 4.82343 128.593 5.22962C128.512 4.53869 128.336 3.87204 128.085 3.25749C128.47 3.08383 128.904 3.08627 129.312 3.30704L130.045 3.69769C130.266 3.43841 130.427 3.11535 130.536 2.75722C130.826 1.76594 131.575 1.16164 132.385 1.26253C133.693 1.42604 131.966 1.05144 133.271 0.657685C135.269 0.0528747 137.492 -0.523847 139.27 0.819411C141.93 2.82418 143.941 4.29677 148.635 4.80711C150.982 6.84845 151.992 11.7599 152.712 14.2265C153.285 16.1795 153.713 20.0497 153.104 21.9905C151.569 26.8961 152.876 29.7958 150.977 34.4808Z" fill="#2F2E41"/>
<path d="M183.644 248.154C184.452 248.22 184.899 246.911 184.287 246.147L184.227 245.832C184.235 245.806 184.243 245.781 184.251 245.756C185.068 243.213 187.837 243.231 188.648 245.777C189.367 248.037 190.282 250.301 190.508 252.69C190.609 253.745 190.564 254.819 190.384 255.854C192.069 251.052 192.956 245.808 192.956 240.534C192.956 239.209 192.9 237.884 192.787 236.562C192.693 235.481 192.564 234.406 192.398 233.341C191.496 227.586 189.543 222.105 186.726 217.526C185.372 216.561 184.243 215.051 183.56 213.241C183.315 212.589 183.123 211.887 183.032 211.171C183.187 211.198 183.614 208.135 183.497 207.948C183.712 207.522 184.096 207.311 184.331 206.896C185.498 204.833 187.105 205.193 187.944 207.997C189.736 209.177 189.753 211.135 188.654 213.017C187.954 214.215 187.858 215.835 187.244 217.118C187.307 217.223 187.373 217.325 187.436 217.431C188.594 219.369 189.596 221.452 190.44 223.641C190.202 221.208 190.554 218.278 191.155 216.389C191.838 214.237 193.12 212.424 194.249 210.564C195.605 208.329 198.385 209.304 198.623 212.137C198.626 212.165 198.628 212.192 198.63 212.219C198.462 212.343 198.298 212.474 198.138 212.612C197.223 213.402 197.539 215.253 198.623 215.471L198.648 215.476C198.587 216.264 198.484 217.045 198.332 217.813C199.78 225.119 196.654 227.78 192.19 227.899C192.092 227.965 191.996 228.031 191.897 228.094C192.35 229.755 192.711 231.459 192.979 233.187C193.219 234.713 193.385 236.255 193.479 237.805C193.595 239.759 193.585 241.724 193.459 243.675L193.466 243.606C193.787 241.457 194.681 239.449 195.98 238.058C197.914 235.985 200.647 235.222 202.734 233.555C203.739 232.753 205.026 233.789 204.851 235.309L204.842 235.382C204.532 235.547 204.229 235.738 203.935 235.952C203.768 236.075 203.604 236.207 203.443 236.345C202.528 237.135 202.844 238.985 203.929 239.204L203.953 239.209C203.971 239.212 203.986 239.215 204.004 239.219C203.471 240.87 202.728 242.403 201.798 243.725C200.893 250.102 197.004 250.707 192.845 248.85H192.842C192.388 251.434 191.723 253.959 190.869 256.365H183.821C183.795 256.263 183.773 256.158 183.75 256.056C184.402 256.108 185.059 256.059 185.7 255.904C185.177 255.067 184.654 254.223 184.131 253.386C184.119 253.369 184.109 253.353 184.099 253.336C183.833 252.908 183.566 252.482 183.3 252.054L183.3 252.053C183.284 250.738 183.405 249.427 183.644 248.154Z" fill="#F2F2F2"/>
<path d="M53.9597 256.392C53.9597 256.729 54.167 257 54.4252 257H204.347C204.605 257 204.812 256.729 204.812 256.392C204.812 256.056 204.605 255.785 204.347 255.785H54.4252C54.167 255.785 53.9597 256.056 53.9597 256.392Z" fill="#CCCCCC"/>
</g>
<defs>
<clipPath id="clip0_137_1420">
<rect width="265" height="257" fill="white"/>
</clipPath>
</defs>
</svg>
