<svg width="265" height="257" viewBox="0 0 265 257" fill="none" xmlns="http://www.w3.org/2000/svg">
<g clip-path="url(#clip0_137_1441)">
<path d="M140.584 195.065C136.643 195.668 133.76 198.185 134.145 200.687C134.53 203.19 138.036 204.729 141.978 204.125C143.556 203.906 145.059 203.313 146.36 202.395L163.025 199.631L161.913 193.058L145.285 195.406C143.768 194.919 142.156 194.802 140.584 195.065Z" fill="#FFB6B6"/>
<path d="M212.398 174.577L205.936 188.259L173.451 199.17L146.494 200.605L145.819 194.145L175.034 188.05L205.011 173.916L212.398 174.577Z" fill="#E0DAC4"/>
<path d="M138.694 145.955L137.808 145.975L139.502 222.759L140.388 222.739L138.694 145.955Z" fill="#505285"/>
<path d="M138.713 179.953C138.633 179.68 136.797 173.205 140.774 166.839L141.525 167.307C137.765 173.326 139.545 179.641 139.564 179.705L138.713 179.953Z" fill="#505285"/>
<path d="M141.084 167.331C141.084 167.331 139.875 159.086 151.013 156.823C153.333 156.352 155.515 156.03 157.514 155.815C159.875 155.562 160.795 158.785 158.663 159.827C155.575 161.334 152.67 163.234 151.156 165.484C146.981 171.69 141.084 167.331 141.084 167.331Z" fill="#839BB1"/>
<path d="M139.859 203.795L139.009 203.547C139.027 203.484 140.808 197.168 137.047 191.15L137.799 190.682C141.776 197.047 139.939 203.523 139.859 203.795Z" fill="#505285"/>
<path d="M137.488 191.173C137.488 191.173 138.697 182.928 127.56 180.666C125.239 180.194 123.058 179.872 121.058 179.657C118.698 179.404 117.777 182.628 119.91 183.669C122.998 185.177 125.902 187.077 127.416 189.327C131.592 195.532 137.488 191.173 137.488 191.173Z" fill="#839BB1"/>
<path d="M152.99 135.294C155.231 134.704 157.328 133.677 157.258 132.66C157.176 131.452 154.063 130.643 151.378 130.52C153.404 128.939 155.264 126.754 154.695 125.765C154.172 124.857 151.738 125.209 149.493 126.009C150.822 124.113 151.756 121.977 151.044 121.247C150.158 120.336 147.013 121.908 144.866 123.645C145.284 120.938 145.073 117.522 143.856 117.213C142.838 116.954 141.396 118.942 140.407 121.107C139.969 118.835 139.085 116.678 138.063 116.678C136.608 116.678 135.429 121.055 135.429 123.906C135.429 124.067 135.433 124.219 135.441 124.364C135.295 124.195 135.127 124.018 134.937 123.833C132.886 121.847 128.918 119.642 127.905 120.683C127.193 121.414 128.127 123.55 129.456 125.446C127.211 124.646 124.777 124.294 124.254 125.202C123.551 126.423 126.556 129.471 128.998 130.949C128.851 130.931 128.697 130.917 128.533 130.905C125.682 130.711 121.225 131.587 121.126 133.036C121.057 134.052 123.153 135.08 125.395 135.67C123.163 136.507 121.078 137.807 121.267 138.838C121.497 140.089 125 140.527 127.755 140.271C125.697 142.241 123.466 145.77 124.397 146.805C125.079 147.563 127.279 146.778 129.265 145.585C128.312 147.765 127.794 150.164 128.667 150.747C129.821 151.517 132.985 148.837 134.653 146.531C134.483 149.352 135.159 153.228 136.502 153.38C137.516 153.496 138.641 151.453 139.333 149.246C140.07 151.508 141.277 153.646 142.318 153.505C143.671 153.32 144.261 149.348 144.008 146.525C145.729 148.736 148.625 151.1 149.718 150.371C150.591 149.789 150.073 147.39 149.12 145.209C151.106 146.403 153.305 147.187 153.988 146.429C154.919 145.395 152.687 141.865 150.629 139.895C153.384 140.152 156.888 139.714 157.118 138.463C157.307 137.432 155.222 136.131 152.99 135.294ZM140.919 143.274C140.342 143.352 139.815 143.464 139.415 143.75C138.989 143.329 138.367 143.2 137.676 143.122C136.902 143.033 136.198 143.025 135.662 143.471C135.466 142.926 134.983 142.54 134.421 142.164C133.937 141.842 133.469 141.577 132.979 141.526C132.94 140.928 132.56 140.421 132.095 139.904C131.799 139.575 131.502 139.281 131.173 139.084C131.648 138.507 131.593 137.778 131.446 136.977C131.341 136.407 131.205 135.887 130.901 135.5C131.303 135.057 131.404 134.431 131.451 133.738C131.503 132.982 131.481 132.296 131.044 131.786C132.174 131.929 132.72 131.227 133.227 130.346C133.517 129.843 133.75 129.358 133.767 128.866C134.362 128.788 134.844 128.375 135.328 127.877C135.743 127.451 136.095 127.03 136.227 126.545C136.702 126.943 137.349 127.003 138.063 127.003C138.759 127.003 139.391 126.946 139.862 126.576C140.228 126.905 140.739 127.076 141.302 127.219C141.84 127.356 142.348 127.447 142.81 127.355C142.979 127.74 143.278 128.088 143.621 128.44C144.105 128.938 144.587 129.351 145.182 129.43C145.199 129.921 145.432 130.406 145.722 130.909C146.063 131.501 146.421 132.013 146.963 132.242C146.9 132.586 146.906 132.965 146.934 133.363C146.981 134.056 147.081 134.681 147.484 135.125C147.179 135.511 147.043 136.031 146.938 136.602C146.791 137.402 146.737 138.131 147.212 138.708C146.882 138.905 146.586 139.2 146.289 139.529C145.824 140.045 145.444 140.553 145.406 141.15C144.916 141.201 144.447 141.466 143.964 141.789C143.303 142.23 142.753 142.686 142.648 143.395C142.152 143.156 141.559 143.187 140.919 143.274Z" fill="#839BB1"/>
<path d="M139.38 144.651C144.576 144.651 148.788 140.448 148.788 135.264C148.788 130.08 144.576 125.877 139.38 125.877C134.185 125.877 129.973 130.08 129.973 135.264C129.973 140.448 134.185 144.651 139.38 144.651Z" fill="#505285"/>
<path d="M25.917 249.089C25.917 249.38 26.1518 249.615 26.4441 249.615H257.796C258.088 249.615 258.323 249.38 258.323 249.089C258.323 248.797 258.088 248.563 257.796 248.563H26.4441C26.1518 248.563 25.917 248.797 25.917 249.089Z" fill="#3F3D56"/>
<path d="M152.483 226.526L146.681 241.167L139.173 236.06L143.61 220.737L152.483 226.526Z" fill="#FFB6B6"/>
<path d="M128.253 221.078L112.896 235.719L119.039 242.189L134.737 229.931L128.253 221.078Z" fill="#FFB6B6"/>
<path d="M215.276 173.408L215.105 172.216L211.181 164.555L198.213 167.96L200.602 178.515L215.276 173.408Z" fill="#FFB6B6"/>
<path d="M209.816 224.483L210.214 229.597C210.214 229.597 211.863 251.042 198.554 252.744C185.244 254.447 179.443 256.149 171.594 242.87L159.308 221.078L152.132 229.597L142.586 222.099C142.586 222.099 149.411 195.54 154.872 194.519C155.554 194.391 156.237 194.327 156.909 194.313C161.429 194.219 165.69 196.425 168.395 200.04L183.879 220.737L189.51 218.184L209.816 224.483Z" fill="#2F2E41"/>
<path d="M136.102 240.487L139.173 234.698L148.046 240.827C148.046 240.827 150.094 248.318 147.023 249.34C143.951 250.361 135.419 248.999 135.419 248.999C135.419 248.999 119.721 252.404 119.38 249.34C119.039 246.275 126.547 245.594 126.547 245.594L136.102 240.487Z" fill="#2F2E41"/>
<path d="M169.546 236.4L145.828 221.489L133.713 232.314L125.523 222.78C125.523 222.78 140.538 200.648 144.975 199.626C149.411 198.605 156.578 197.924 156.578 197.924L178.419 218.013L169.546 236.4Z" fill="#2F2E41"/>
<path d="M112.555 234.357L120.404 242.87L119.369 243.753C119.369 243.753 117.332 252.602 112.555 249.609C107.777 246.615 107.436 245.934 107.436 245.934C107.436 245.934 93.7849 248.999 92.4198 243.551C91.0548 238.103 94.8087 239.124 94.8087 239.124L98.2173 241.167L112.555 234.357Z" fill="#2F2E41"/>
<path d="M202.308 171.705C208.339 171.705 213.228 166.827 213.228 160.809C213.228 154.791 208.339 149.913 202.308 149.913C196.277 149.913 191.387 154.791 191.387 160.809C191.387 166.827 196.277 171.705 202.308 171.705Z" fill="#FFB6B6"/>
<path d="M199.748 176.302L215.447 171.535C215.447 171.535 221.589 185.836 220.566 192.305C219.542 198.775 210.215 229.597 210.215 229.597L189.51 218.184C189.51 218.184 189.169 211.374 188.145 208.309C187.121 205.245 183.879 195.881 191.046 188.049C198.213 180.218 199.748 176.302 199.748 176.302Z" fill="#E0DAC4"/>
<path d="M46.4411 68.9364L45.5557 68.9558L49.5423 249.718L50.4277 249.699L46.4411 68.9364Z" fill="#505285"/>
<path d="M47.6614 148.791C47.616 148.637 43.2241 133.164 52.4451 118.406L53.1969 118.873C44.1835 133.3 48.4671 148.391 48.5115 148.542L47.6614 148.791Z" fill="#505285"/>
<path d="M52.6678 119.245C52.6678 119.245 49.8217 99.8357 76.0413 94.5087C81.5037 93.3989 86.6389 92.6404 91.3463 92.1351C96.9028 91.5386 99.0703 99.1278 94.0506 101.579C86.7811 105.129 79.9428 109.602 76.3785 114.899C66.5483 129.507 52.6678 119.245 52.6678 119.245Z" fill="#839BB1"/>
<path d="M49.2079 204.92L48.3579 204.672C48.402 204.521 52.6774 189.415 43.6725 175.002L44.4243 174.534C53.6453 189.293 49.2534 204.766 49.2079 204.92Z" fill="#505285"/>
<path d="M44.2016 175.375C44.2016 175.375 47.0478 155.965 20.8282 150.638C15.3658 149.528 10.2305 148.77 5.52316 148.264C-0.033372 147.668 -2.20082 155.257 2.8188 157.708C10.0884 161.258 16.9267 165.731 20.491 171.028C30.3212 185.636 44.2016 175.375 44.2016 175.375Z" fill="#839BB1"/>
<path d="M80.6945 43.8254C85.9722 42.437 90.9074 40.0178 90.7438 37.6245C90.5493 34.7815 83.2222 32.8765 76.9011 32.5866C81.6689 28.8649 86.0497 23.7202 84.71 21.3934C83.4783 19.2543 77.7488 20.0829 72.4625 21.9669C75.5908 17.5044 77.7902 12.476 76.1152 10.7551C74.0287 8.61152 66.6235 12.3114 61.5698 16.4012C62.5536 10.0297 62.0563 1.98735 59.1922 1.25972C56.7961 0.650997 53.4001 5.32934 51.0719 10.4256C50.0428 5.07747 47.9597 0 45.5555 0C42.1305 0 39.3541 10.3031 39.3541 17.0155C39.3541 17.395 39.3642 17.7522 39.3815 18.0934C39.0378 17.6958 38.6438 17.2804 38.1945 16.845C33.3683 12.1685 24.0262 6.97781 21.6401 9.42924C19.9651 11.1501 22.1645 16.1786 25.2928 20.641C20.0065 18.757 14.277 17.9284 13.0453 20.0675C11.3904 22.9418 18.4644 30.1169 24.2144 33.5965C23.8687 33.5549 23.5056 33.5199 23.1191 33.4936C16.4071 33.0367 5.91583 35.0991 5.68267 38.5084C5.51899 40.9017 10.4543 43.3209 15.7319 44.7094C10.4775 46.6801 5.56842 49.7421 6.014 52.1687C6.55477 55.1138 14.8032 56.1447 21.2887 55.5413C16.4436 60.1795 11.1898 68.4885 13.3824 70.9236C14.9891 72.7081 20.1669 70.8611 24.842 68.0508C22.5982 73.1847 21.3796 78.8317 23.4348 80.2034C26.1507 82.0161 33.5993 75.7071 37.5265 70.2785C37.1264 76.9198 38.7191 86.0437 41.8792 86.4038C44.268 86.6759 46.915 81.8671 48.5455 76.6699C50.2793 81.9969 53.1213 87.0294 55.5711 86.6959C58.7567 86.2622 60.1455 76.91 59.5513 70.2638C63.6022 75.4691 70.4198 81.036 72.9917 79.3195C75.0468 77.9478 73.8282 72.3008 71.5845 67.1669C76.2596 69.9771 81.4374 71.8242 83.0441 70.0397C85.2366 67.6046 79.9829 59.2956 75.1377 54.6574C81.6232 55.2608 89.8717 54.2299 90.4125 51.2848C90.858 48.8582 85.9489 45.7962 80.6945 43.8254ZM52.2772 62.6112C50.9206 62.7959 49.6801 63.0596 48.7368 63.7332C47.7346 62.7405 46.2709 62.4382 44.6434 62.2528C42.8211 62.0452 41.1651 62.0251 39.9023 63.0744C39.4402 61.7929 38.304 60.8825 36.9805 59.9992C35.8424 59.2396 34.7388 58.6161 33.5851 58.4959C33.4949 57.0898 32.6005 55.8948 31.5058 54.679C30.8078 53.9038 30.1095 53.2107 29.3346 52.7471C30.4526 51.3889 30.3237 49.6722 29.9778 47.7883C29.731 46.4445 29.4104 45.2201 28.6931 44.3106C29.6412 43.2665 29.8772 41.7937 29.9888 40.1632C30.1105 38.3828 30.0599 36.7685 29.0299 35.5665C31.6917 35.9043 32.9762 34.2498 34.1702 32.1761C34.8522 30.9916 35.4005 29.8505 35.4422 28.6939C36.8421 28.5084 37.976 27.5367 39.1172 26.3642C40.0921 25.3627 40.9213 24.371 41.2328 23.2295C42.3499 24.1662 43.874 24.3079 45.5555 24.3079C47.1935 24.3079 48.6822 24.1733 49.7908 23.3005C50.6514 24.0765 51.8539 24.4789 53.1807 24.816C54.4473 25.1378 55.6429 25.353 56.73 25.1364C57.1268 26.0409 57.8323 26.8623 58.6381 27.6901C59.7793 28.8626 60.9132 29.8343 62.3131 30.0197C62.3548 31.1764 62.9031 32.3175 63.5851 33.502C64.388 34.8964 65.2312 36.102 66.5065 36.6399C66.3576 37.4499 66.3735 38.3414 66.4377 39.2793C66.5492 40.9098 66.7852 42.3826 67.7334 43.4267C67.016 44.3362 66.6954 45.5606 66.4487 46.9043C66.1027 48.7883 65.9738 50.5049 67.0919 51.8631C66.317 52.3267 65.6186 53.0198 64.9206 53.7951C63.8259 55.0109 62.9315 56.2059 62.8414 57.6119C61.6877 57.7322 60.584 58.3557 59.4459 59.1152C57.8916 60.1527 56.5968 61.228 56.3482 62.8974C55.1818 62.3329 53.7855 62.4058 52.2772 62.6112Z" fill="#839BB1"/>
<path d="M48.6562 65.8525C60.8881 65.8525 70.8041 55.9588 70.8041 43.7544C70.8041 31.5499 60.8881 21.6562 48.6562 21.6562C36.4243 21.6562 26.5084 31.5499 26.5084 43.7544C26.5084 55.9588 36.4243 65.8525 48.6562 65.8525Z" fill="#505285"/>
<path d="M253.288 206.066L252.402 206.085L253.355 249.276L254.241 249.257L253.288 206.066Z" fill="#505285"/>
<path d="M252.919 225.248C252.873 225.092 251.817 221.368 254.099 217.715L254.851 218.183C252.785 221.49 253.759 224.966 253.769 225L252.919 225.248Z" fill="#505285"/>
<path d="M254.439 218.094C254.439 218.094 253.759 213.456 260.023 212.183C261.329 211.918 262.556 211.737 263.68 211.616C265.008 211.474 265.526 213.287 264.327 213.873C262.59 214.721 260.956 215.79 260.104 217.055C257.755 220.546 254.439 218.094 254.439 218.094Z" fill="#839BB1"/>
<path d="M253.935 238.659L253.085 238.411C253.095 238.377 254.07 234.902 252.003 231.595L252.755 231.127C255.037 234.78 253.982 238.503 253.935 238.659Z" fill="#505285"/>
<path d="M252.416 231.505C252.416 231.505 253.096 226.868 246.831 225.595C245.526 225.33 244.299 225.148 243.174 225.028C241.846 224.885 241.328 226.699 242.528 227.284C244.265 228.132 245.899 229.201 246.75 230.467C249.099 233.957 252.416 231.505 252.416 231.505Z" fill="#839BB1"/>
<path d="M261.135 200.073C262.396 199.742 263.576 199.164 263.536 198.592C263.49 197.912 261.739 197.457 260.229 197.388C261.368 196.499 262.415 195.269 262.095 194.714C261.8 194.202 260.431 194.4 259.168 194.851C259.916 193.784 260.441 192.583 260.041 192.172C259.543 191.659 257.773 192.543 256.566 193.521C256.801 191.998 256.682 190.077 255.998 189.903C255.425 189.757 254.614 190.875 254.057 192.093C253.811 190.815 253.314 189.602 252.739 189.602C251.921 189.602 251.258 192.064 251.258 193.667C251.258 193.758 251.26 193.843 251.264 193.925C251.182 193.83 251.088 193.731 250.98 193.627C249.827 192.509 247.595 191.269 247.025 191.855C246.625 192.266 247.15 193.467 247.898 194.534C246.635 194.084 245.266 193.886 244.971 194.397C244.576 195.083 246.266 196.798 247.64 197.629C247.557 197.619 247.471 197.611 247.378 197.605C245.775 197.496 243.268 197.988 243.212 198.803C243.173 199.375 244.352 199.953 245.613 200.285C244.358 200.755 243.185 201.487 243.291 202.067C243.42 202.771 245.391 203.017 246.941 202.873C245.783 203.981 244.528 205.966 245.052 206.548C245.436 206.975 246.673 206.533 247.79 205.862C247.254 207.088 246.963 208.438 247.454 208.765C248.103 209.199 249.882 207.691 250.821 206.394C250.725 207.981 251.106 210.161 251.861 210.247C252.432 210.312 253.064 209.163 253.454 207.921C253.868 209.194 254.547 210.396 255.132 210.317C255.894 210.213 256.225 207.979 256.083 206.39C257.051 207.634 258.68 208.964 259.295 208.554C259.786 208.226 259.495 206.877 258.959 205.651C260.076 206.322 261.313 206.763 261.697 206.337C262.221 205.755 260.965 203.77 259.808 202.662C261.357 202.806 263.328 202.559 263.457 201.856C263.564 201.276 262.391 200.544 261.135 200.073ZM254.345 204.562C254.021 204.606 253.725 204.669 253.499 204.83C253.26 204.593 252.91 204.521 252.521 204.476C252.086 204.427 251.69 204.422 251.388 204.673C251.278 204.366 251.007 204.149 250.69 203.938C250.418 203.756 250.155 203.607 249.879 203.579C249.858 203.243 249.644 202.957 249.382 202.667C249.215 202.481 249.049 202.316 248.863 202.205C249.131 201.881 249.1 201.47 249.017 201.02C248.958 200.699 248.882 200.407 248.71 200.189C248.937 199.94 248.993 199.588 249.02 199.198C249.049 198.773 249.037 198.387 248.791 198.1C249.427 198.181 249.734 197.785 250.019 197.29C250.182 197.007 250.313 196.734 250.323 196.458C250.657 196.414 250.928 196.181 251.201 195.901C251.434 195.662 251.632 195.425 251.706 195.152C251.973 195.376 252.337 195.41 252.739 195.41C253.131 195.41 253.486 195.378 253.751 195.169C253.957 195.355 254.244 195.451 254.561 195.531C254.864 195.608 255.15 195.66 255.409 195.608C255.504 195.824 255.673 196.02 255.865 196.218C256.138 196.498 256.409 196.73 256.743 196.775C256.753 197.051 256.884 197.324 257.047 197.607C257.239 197.94 257.441 198.228 257.745 198.356C257.71 198.55 257.713 198.763 257.729 198.987C257.755 199.377 257.812 199.729 258.038 199.978C257.867 200.195 257.79 200.488 257.731 200.809C257.649 201.259 257.618 201.669 257.885 201.994C257.7 202.105 257.533 202.27 257.366 202.455C257.105 202.746 256.891 203.032 256.87 203.367C256.594 203.396 256.33 203.545 256.058 203.727C255.687 203.975 255.377 204.231 255.318 204.63C255.039 204.496 254.706 204.513 254.345 204.562Z" fill="#839BB1"/>
<path d="M253.48 205.337C256.403 205.337 258.772 202.973 258.772 200.056C258.772 197.14 256.403 194.776 253.48 194.776C250.558 194.776 248.188 197.14 248.188 200.056C248.188 202.973 250.558 205.337 253.48 205.337Z" fill="#505285"/>
<path d="M165.197 247.801C162.643 250.855 162.151 254.646 164.099 256.267C166.047 257.889 169.697 256.728 172.252 253.673C173.29 252.467 174.023 251.03 174.389 249.483L185.051 236.407L179.857 232.214L168.948 244.952C167.488 245.589 166.202 246.566 165.197 247.801Z" fill="#FFB6B6"/>
<path d="M211.79 183.172L215.5 197.836L197.34 226.841L178.8 245.432L172.792 240.458L191.489 217.246L205.661 187.339L211.79 183.172Z" fill="#E0DAC4"/>
<path d="M192.24 158.936C195.041 158.93 195.2 158.948 195.653 158.936C199.127 158.845 200.035 157.481 201.796 157.574C204.938 157.74 200.791 173.461 199.066 180.728C197.374 187.856 203.091 194.243 203.502 194.689C209.305 200.986 219.499 202.138 221.248 199.456C222.664 197.285 217.646 193.985 218.859 189.241C220.045 184.603 225.519 185.097 227.05 180.728C228.652 176.153 223.267 173.846 219.883 162.682C217.94 156.271 218.284 155.076 216.47 151.105C211.624 140.491 187.867 145.01 190.534 154.85C191.05 156.754 189.677 158.943 192.24 158.936Z" fill="#2F2E41"/>
</g>
<defs>
<clipPath id="clip0_137_1441">
<rect width="265" height="257" fill="white"/>
</clipPath>
</defs>
</svg>
