<svg width="265" height="257" viewBox="0 0 265 257" fill="none" xmlns="http://www.w3.org/2000/svg">
<g clip-path="url(#clip0_137_1351)">
<path d="M216.934 121.087C225.136 125.8 232.818 132.111 240.014 139.894V151.796C236.502 150.731 223.1 146.315 217.808 139.332C211.692 131.262 210.604 119.012 215.698 115.944C217.025 115.147 218.636 115.048 220.404 115.485C225.98 119.059 231.313 123.394 236.407 128.445C238.212 130.917 239.329 134.065 240.014 137.246V137.397C233.424 129.22 225.675 123.915 216.934 121.087Z" fill="#839BB1"/>
<path d="M216.522 47.988C224.723 52.7008 232.406 59.0116 239.601 66.7954V69.5136C238.913 69.3043 237.85 68.97 236.539 68.5108C230.654 62.2919 223.944 58.1043 216.522 55.7019C221.715 58.6847 226.702 62.3103 231.486 66.5456C226.425 64.3747 220.507 61.1568 217.396 57.0501C217.066 56.6166 216.753 56.1795 216.456 55.7387C211.222 47.9953 210.876 39.5026 215.698 36.6007C220.792 33.5334 229.723 37.879 235.839 45.9456C239.375 50.6144 240.368 57.8582 240.57 63.1294C240.244 63.5114 239.923 63.9008 239.601 64.2975C233.011 56.1207 225.263 50.8164 216.522 47.988Z" fill="#839BB1"/>
<path d="M263.208 91.4088V91.4124C262.623 92.856 261.889 94.3143 261.016 95.7506C259.718 97.8885 257.723 99.8721 255.464 101.646C253.045 103.549 250.317 105.209 247.807 106.558C244.304 108.442 241.225 109.72 240.013 110.205V109.048C246.974 101.665 254.376 95.6478 262.269 91.1149C253.886 93.8258 246.422 98.8215 240.013 106.436V101.334C246.974 93.9507 254.376 87.9338 262.269 83.4009C253.886 86.1118 246.422 91.1075 240.013 98.7223V93.6201C246.884 86.3359 254.178 80.3814 261.955 75.8706C265.599 78.4823 265.916 84.7821 263.208 91.4088Z" fill="#839BB1"/>
<path d="M59.2172 142.977C91.9219 142.977 118.434 119.347 118.434 90.197C118.434 61.0474 91.9219 37.417 59.2172 37.417C26.5124 37.417 0 61.0474 0 90.197C0 119.347 26.5124 142.977 59.2172 142.977Z" fill="#CBCBDD"/>
<path d="M244.751 174.817C249.732 178.557 251.604 183.879 248.934 186.704C246.263 189.528 240.062 188.786 235.08 185.045C233.067 183.574 231.478 181.696 230.446 179.566L209.568 163.484L218.244 154.912L237.905 171.676C240.436 172.221 242.784 173.298 244.751 174.817Z" fill="#FCB4B4"/>
<path d="M227.892 162.919L202.368 133.707L178.194 94.272L177.567 148.964L213.804 175.492L227.892 162.919Z" fill="#2F2E41"/>
<path d="M116.863 82.5114L122.71 58.8164L142.253 59.6543L147.27 76.8437L116.863 82.5114Z" fill="#FCB4B4"/>
<path opacity="0.1" d="M116.863 82.5114L122.71 58.8164L142.253 59.6543L147.27 76.8437L116.863 82.5114Z" fill="black"/>
<path d="M131.998 65.1746C144.082 65.1746 153.877 56.4437 153.877 45.6735C153.877 34.9033 144.082 26.1724 131.998 26.1724C119.914 26.1724 110.118 34.9033 110.118 45.6735C110.118 56.4437 119.914 65.1746 131.998 65.1746Z" fill="#FCB4B4"/>
<path d="M122.211 53.2043C122.211 53.2043 120.004 53.1852 115.412 52.4243C110.821 51.6633 118.793 61.2254 118.793 61.2254C97.187 53.1845 104.101 32.7888 104.101 32.7888C82.1735 29.0512 91.3593 11.6773 91.3593 11.6773C91.3593 11.6773 98.5872 -0.754897 120.807 0.036216C143.026 0.827329 132.529 20.3597 132.529 20.3597C147.006 20.3841 148.634 32.0126 148.634 32.0126C148.634 32.0126 143.416 32.5932 133.932 34.7386C124.447 36.884 122.211 53.2043 122.211 53.2043Z" fill="#2F2E41"/>
<path d="M121.343 75.0492L120.355 73.334C120.355 73.334 102.773 75.1504 99.8882 77.5482C97.0033 79.946 90.4092 90.5986 90.4092 90.5986L104.834 101.619L121.343 75.0492Z" fill="#FFB6B6"/>
<path d="M143.162 74.6325C143.162 74.6325 156.351 71.4972 163.769 78.1091C171.187 84.7211 179.842 96.8431 179.842 96.8431L179.43 106.394L158.823 97.5402L143.162 74.6325Z" fill="#FFB6B6"/>
<path d="M146.524 73.334C146.524 73.334 163.769 67.824 174.896 79.5787C186.024 91.3333 189.321 128.434 189.321 128.434C189.321 128.434 214.461 197.125 208.279 197.86C202.097 198.594 164.371 200.625 164.371 200.625L151.405 125.863L145.635 73.334L146.524 73.334Z" fill="#2F2E41"/>
<path d="M106.895 139.454L102.773 152.678L158.823 156.351C158.823 156.351 156.763 145.296 158.823 141.273L106.895 139.454Z" fill="#FCB4B4"/>
<path d="M138.629 225.41L141.102 257L172.226 256.266L171.187 224.308L138.629 225.41Z" fill="#FCB4B4"/>
<path d="M90.0694 222.285L80.9302 256.633L113.513 256.436L121.814 228.361L90.0694 222.285Z" fill="#FCB4B4"/>
<path d="M145.635 73.334H120.356L99.8884 97.5779L104.422 147.168C104.422 147.168 114.725 144.596 129.15 144.596H160.06C160.06 144.596 155.526 131.74 161.296 126.597C167.066 121.455 162.945 97.5779 162.945 97.5779L145.635 73.334Z" fill="#E0DAC4"/>
<path d="M100.712 148.637L77.6331 223.205C77.6331 223.205 111.618 235.376 132.129 231.862C152.641 228.348 180.666 227.246 180.666 227.246L160.884 151.575L100.712 148.637Z" fill="#2F2E41"/>
<path d="M154.082 175.919C159.063 179.659 160.935 184.981 158.265 187.806C155.594 190.63 149.392 189.888 144.411 186.147C142.398 184.677 140.809 182.798 139.777 180.668L118.898 164.586L127.575 156.014L147.236 172.778C149.767 173.323 152.114 174.4 154.082 175.919Z" fill="#FCB4B4"/>
<path d="M141.344 162.919L115.82 133.707L91.6457 94.272L91.0188 148.964L127.256 175.492L141.344 162.919Z" fill="#2F2E41"/>
<path d="M122.079 73.334C122.079 73.334 104.834 67.824 93.7065 79.5787C82.5789 91.3333 79.2818 128.434 79.2818 128.434C79.2818 128.434 54.1417 197.125 60.3237 197.86C66.5057 198.594 104.232 200.625 104.232 200.625L117.198 125.863L122.968 73.334L122.079 73.334Z" fill="#2F2E41"/>
<path d="M240.426 59.375H239.601V187.207H240.426V59.375Z" fill="#3F3D56"/>
<path d="M11.2798 190.513C19.4812 195.226 27.1634 201.536 34.3592 209.32V221.222C30.8478 220.157 17.4453 215.741 12.1535 208.758C6.03746 200.688 4.94943 188.437 10.0434 185.37C11.3704 184.573 12.9819 184.474 14.7499 184.911C20.3261 188.485 25.6591 192.82 30.7531 197.87C32.5582 200.343 33.6751 203.491 34.3592 206.672V206.822C27.7692 198.646 20.0211 193.341 11.2798 190.513Z" fill="#839BB1"/>
<path d="M10.8676 117.414C19.0691 122.127 26.7512 128.437 33.9471 136.221V138.939C33.2588 138.73 32.1955 138.396 30.8849 137.937C24.9997 131.718 18.2901 127.53 10.8676 125.128C16.0605 128.11 21.0473 131.736 25.8322 135.971C20.7712 133.8 14.8529 130.583 11.7413 126.476C11.4116 126.042 11.0984 125.605 10.8017 125.164C5.5676 117.421 5.2214 108.928 10.0434 106.026C15.1373 102.959 24.0683 107.305 30.1843 115.371C33.7204 120.04 34.7136 127.284 34.9156 132.555C34.59 132.937 34.2685 133.327 33.9471 133.723C27.3571 125.546 19.6089 120.242 10.8676 117.414Z" fill="#839BB1"/>
<path d="M57.554 160.835V160.838C56.9687 162.282 56.2352 163.74 55.3614 165.176C54.0632 167.314 52.0685 169.298 49.81 171.072C47.3908 172.975 44.6625 174.635 42.1525 175.983C38.6494 177.868 35.5708 179.146 34.3591 179.631V178.474C41.3201 171.09 48.722 165.074 56.6143 160.541C48.2315 163.252 40.7678 168.247 34.3591 175.862V170.76C41.3201 163.376 48.722 157.36 56.6143 152.827C48.2315 155.538 40.7678 160.533 34.3591 168.148V163.046C41.2294 155.762 48.5241 149.807 56.3011 145.296C59.9444 147.908 60.2617 154.208 57.554 160.835Z" fill="#839BB1"/>
<path d="M34.7713 128.801H33.947V256.632H34.7713V128.801Z" fill="#3F3D56"/>
</g>
<defs>
<clipPath id="clip0_137_1351">
<rect width="265" height="257" fill="white"/>
</clipPath>
</defs>
</svg>
